<svg width="372" height="216" viewBox="0 0 372 216" fill="none" xmlns="http://www.w3.org/2000/svg">
<path d="M43.4384 172.48C32.2121 174.593 24.4801 184.62 25.5767 195.644C26.6733 206.668 36.2381 215.082 47.674 215.082C59.1099 215.082 68.6748 206.668 69.7714 195.644C70.868 184.62 63.136 174.593 51.9097 172.48M104.85 129.109C103.988 140.153 111.931 150.024 123.199 151.913C134.468 153.802 145.375 147.091 148.396 136.41C151.418 125.728 145.566 114.571 134.877 110.634C124.188 106.697 112.16 111.269 107.089 121.197M142.528 173.62C141.666 184.664 149.609 194.536 160.877 196.424C172.146 198.313 183.052 191.602 186.074 180.921C189.096 170.24 183.244 159.083 172.555 155.145C161.866 151.208 149.837 155.781 144.767 165.708M266.439 138.62C265.577 149.664 273.519 159.536 284.788 161.424C296.056 163.313 306.963 156.602 309.985 145.921C313.006 135.24 307.154 124.083 296.465 120.145C285.777 116.208 273.748 120.781 268.677 130.708M321.166 65.6203C320.304 76.6642 328.246 86.5356 339.515 88.4243C350.783 90.313 361.69 83.6025 364.712 72.9211C367.733 62.2397 361.881 51.0827 351.193 47.1455C340.504 43.2083 328.475 47.7806 323.404 57.7079M172.473 54.6203C171.611 65.6642 179.554 75.5356 190.822 77.4243C202.091 79.313 212.997 72.6025 216.019 61.9211C219.041 51.2397 213.189 40.0827 202.5 36.1455C191.811 32.2083 179.782 36.7806 174.712 46.7079M219.762 109.691C226.611 118.561 239.297 120.94 249.069 115.188C258.841 109.435 262.503 97.4339 257.527 87.4621C252.552 77.4903 240.567 72.8108 229.841 76.651C219.114 80.4912 213.156 91.5959 216.076 102.304M3.12914 46.6203C2.26704 57.6642 10.2097 67.5356 21.4781 69.4243C32.7465 71.313 43.6533 64.6025 46.6751 53.9211C49.6969 43.2397 43.8449 32.0827 33.156 28.1455C22.4671 24.2083 10.4383 28.7806 5.36759 38.7079M1.06397 111.62C0.201865 122.664 8.14452 132.536 19.4129 134.424C30.6813 136.313 41.5881 129.602 44.6099 118.921C47.6317 108.24 41.7797 97.0827 31.0908 93.1455C20.402 89.2083 8.37313 93.7806 3.30241 103.708M90.2093 207.086C90.2093 207.086 104.067 207.736 107.608 204.839C111.21 206.672 116.46 207.323 123.541 206.494C123.541 206.494 123.602 185.684 123.541 182.314C123.48 178.944 119.512 174.57 113.835 174.436C108.158 174.302 89.7209 174.436 89.7209 174.436M90.2093 207.086L89.7209 174.436M90.2093 207.086L85.5689 203.834L85.3634 178.412L89.7209 174.436M112.771 188.451C114.216 187.817 115.851 187.717 117.366 188.173C118.881 188.628 120.171 189.606 120.99 190.921C121.81 192.236 122.103 193.797 121.813 195.308C121.523 196.818 120.671 198.173 119.418 199.115C118.165 200.057 116.599 200.521 115.016 200.419C113.433 200.317 111.944 199.656 110.832 198.561C109.719 197.466 109.06 196.013 108.98 194.479C108.9 192.945 109.404 191.435 110.396 190.237M114.477 206.686C114.165 208.477 113.217 210.107 111.796 211.293C110.376 212.479 108.572 213.148 106.697 213.183C104.821 213.219 102.992 212.619 101.525 211.487C100.057 210.356 99.0442 208.763 98.66 206.985M110.989 186.212C111.052 185.202 110.962 184.189 110.723 183.204M47.6131 147.881C47.6131 147.881 58.1743 156.593 62.8058 156.395C64.5011 159.977 68.2468 163.598 74.3763 167.131C74.3763 167.131 87.5511 150.691 89.6286 147.987C91.7061 145.283 91.3234 139.472 86.9131 136.008C82.5029 132.543 67.8214 121.742 67.8214 121.742M47.6131 147.881L67.8214 121.742M47.6131 147.881L45.9905 142.561L61.8635 122.312L67.8214 121.742M77.2307 146.475C78.7748 146.827 80.1317 147.715 81.044 148.972C81.9563 150.229 82.3606 151.766 82.18 153.292C81.9995 154.819 81.2467 156.228 80.0645 157.252C78.8824 158.276 77.3531 158.845 75.7668 158.85C74.1805 158.854 72.6476 158.295 71.4589 157.278C70.2702 156.261 69.5085 154.856 69.3182 153.331C69.1279 151.806 69.5222 150.266 70.4265 149.004C71.3308 147.742 72.682 146.845 74.2238 146.484M67.079 161.921C65.7019 163.154 63.9234 163.883 62.0505 163.982C60.1776 164.081 58.3278 163.543 56.8207 162.462C55.3136 161.38 54.2437 159.823 53.7958 158.059C53.3479 156.295 53.5501 154.435 54.3675 152.8M77.232 143.648C77.9187 142.885 78.4869 142.03 78.9184 141.108M207.315 152.218C207.315 152.218 217.877 160.931 222.508 160.733C224.203 164.315 227.949 167.936 234.079 171.469C234.079 171.469 247.253 155.029 249.331 152.325C251.408 149.621 251.026 143.81 246.615 140.345C242.205 136.881 227.524 126.08 227.524 126.08M207.315 152.218L227.524 126.08M207.315 152.218L205.693 146.898L221.566 126.65L227.524 126.08M236.933 150.812C238.477 151.164 239.834 152.053 240.746 153.31C241.659 154.566 242.063 156.104 241.882 157.63C241.702 159.156 240.949 160.565 239.767 161.59C238.585 162.614 237.055 163.183 235.469 163.187C233.883 163.192 232.35 162.633 231.161 161.615C229.972 160.598 229.211 159.194 229.02 157.669C228.83 156.143 229.224 154.604 230.129 153.342C231.033 152.079 232.384 151.183 233.926 150.821M226.781 166.259C225.404 167.492 223.626 168.221 221.753 168.32C219.88 168.418 218.03 167.881 216.523 166.799C215.016 165.718 213.946 164.161 213.498 162.397C213.05 160.633 213.252 158.773 214.07 157.138M236.934 147.985C237.621 147.223 238.189 146.367 238.621 145.446M251.452 207.845C251.452 207.845 265.024 205.06 267.689 201.386C271.653 202.271 276.901 201.608 283.532 199.061C283.532 199.061 278.125 178.921 277.181 175.677C276.237 172.433 271.25 169.18 265.724 170.449C260.199 171.718 242.404 176.39 242.404 176.39M251.452 207.845L242.404 176.39M251.452 207.845L246.11 205.843L239.234 181.308L242.404 176.39M268.377 184.265C269.607 183.295 271.162 182.797 272.747 182.864C274.332 182.931 275.836 183.559 276.975 184.629C278.113 185.699 278.806 187.136 278.922 188.668C279.039 190.2 278.571 191.721 277.606 192.94C276.642 194.16 275.249 194.995 273.692 195.286C272.134 195.577 270.52 195.304 269.157 194.52C267.793 193.735 266.774 192.493 266.294 191.029C265.813 189.565 265.904 187.981 266.549 186.577M274.817 201.48C274.985 203.289 274.496 205.098 273.434 206.596C272.371 208.093 270.803 209.184 268.998 209.68C267.194 210.176 265.267 210.047 263.551 209.314C261.835 208.581 260.437 207.291 259.598 205.666M266.065 182.539C265.861 181.547 265.508 180.589 265.018 179.695M278.299 100.845C278.299 100.845 291.872 98.06 294.536 94.3858C298.501 95.2712 303.748 94.6075 310.379 92.0612C310.379 92.0612 304.972 71.9208 304.028 68.6767C303.084 65.4325 298.097 62.18 292.572 63.449C287.046 64.718 269.251 69.3896 269.251 69.3896M278.299 100.845L269.251 69.3896M278.299 100.845L272.957 98.8434L266.081 74.3083L269.251 69.3896M295.224 77.265C296.455 76.2953 298.01 75.7966 299.594 75.8637C301.179 75.9307 302.683 76.5588 303.822 77.6288C304.96 78.6988 305.653 80.1362 305.77 81.6683C305.886 83.2003 305.418 84.7205 304.454 85.9404C303.489 87.1603 302.096 87.995 300.539 88.2861C298.981 88.5772 297.368 88.3045 296.004 87.5197C294.64 86.7349 293.621 85.4927 293.141 84.0286C292.66 82.5646 292.751 80.9806 293.397 79.5773M301.664 94.4799C301.832 96.289 301.343 98.0984 300.281 99.5955C299.219 101.093 297.65 102.184 295.846 102.68C294.041 103.176 292.115 103.047 290.398 102.314C288.682 101.581 287.284 100.291 286.446 98.6657M292.913 75.5387C292.708 74.5466 292.355 73.5887 291.865 72.6953M336.059 195.845C336.059 195.845 322.486 193.06 319.822 189.386C315.857 190.271 310.61 189.608 303.979 187.061C303.979 187.061 309.386 166.921 310.33 163.677C311.274 160.433 316.261 157.18 321.786 158.449C327.312 159.718 345.107 164.39 345.107 164.39M336.059 195.845L345.107 164.39M336.059 195.845L341.401 193.843L348.277 169.308L345.107 164.39M319.134 172.265C317.903 171.295 316.348 170.797 314.764 170.864C313.179 170.931 311.674 171.559 310.536 172.629C309.398 173.699 308.705 175.136 308.588 176.668C308.472 178.2 308.94 179.721 309.904 180.94C310.869 182.16 312.262 182.995 313.819 183.286C315.377 183.577 316.99 183.304 318.354 182.52C319.718 181.735 320.737 180.493 321.217 179.029C321.698 177.565 321.607 175.981 320.961 174.577M312.694 189.48C312.526 191.289 313.015 193.098 314.077 194.596C315.139 196.093 316.708 197.184 318.512 197.68C320.317 198.176 322.243 198.047 323.96 197.314C325.676 196.581 327.074 195.291 327.912 193.666M321.445 170.539C321.65 169.547 322.003 168.589 322.493 167.695M316.439 38.8452C316.439 38.8452 302.867 36.06 300.203 32.3858C296.238 33.2712 290.99 32.6075 284.36 30.0612C284.36 30.0612 289.767 9.9208 290.711 6.67667C291.655 3.43253 296.642 0.180009 302.167 1.44901C307.693 2.718 325.488 7.38957 325.488 7.38957M316.439 38.8452L325.488 7.38957M316.439 38.8452L321.782 36.8434L328.658 12.3083L325.488 7.38957M299.515 15.265C298.284 14.2953 296.729 13.7966 295.144 13.8637C293.56 13.9307 292.055 14.5588 290.917 15.6288C289.779 16.6988 289.086 18.1362 288.969 19.6683C288.853 21.2003 289.321 22.7205 290.285 23.9404C291.249 25.1603 292.642 25.995 294.2 26.2861C295.758 26.5772 297.371 26.3045 298.735 25.5197C300.099 24.7349 301.117 23.4927 301.598 22.0286C302.079 20.5646 301.988 18.9806 301.342 17.5773M293.075 32.4799C292.907 34.289 293.396 36.0984 294.458 37.5955C295.52 39.0927 297.089 40.1836 298.893 40.6798C300.698 41.1761 302.624 41.0466 304.34 40.3137C306.057 39.5808 307.455 38.2905 308.293 36.6657M301.826 13.5387C302.031 12.5466 302.384 11.5887 302.874 10.6953M238.028 47.8452C238.028 47.8452 251.601 45.06 254.265 41.3858C258.23 42.2712 263.478 41.6075 270.108 39.0612C270.108 39.0612 264.701 18.9208 263.757 15.6767C262.813 12.4325 257.826 9.18001 252.301 10.449C246.775 11.718 228.98 16.3896 228.98 16.3896M238.028 47.8452L228.98 16.3896M238.028 47.8452L232.687 45.8434L225.81 21.3083L228.98 16.3896M254.953 24.265C256.184 23.2953 257.739 22.7966 259.324 22.8637C260.908 22.9307 262.413 23.5588 263.551 24.6288C264.689 25.6988 265.382 27.1362 265.499 28.6683C265.615 30.2003 265.147 31.7205 264.183 32.9404C263.219 34.1603 261.826 34.995 260.268 35.2861C258.71 35.5772 257.097 35.3045 255.733 34.5197C254.369 33.7349 253.351 32.4927 252.87 31.0286C252.389 29.5646 252.48 27.9806 253.126 26.5773M261.393 41.4799C261.562 43.289 261.072 45.0984 260.01 46.5955C258.948 48.0927 257.379 49.1836 255.575 49.6798C253.77 50.1761 251.844 50.0466 250.128 49.3137C248.411 48.5808 247.013 47.2905 246.175 45.6657M252.642 22.5387C252.437 21.5466 252.084 20.5887 251.594 19.6953M327.772 125.583C327.772 125.583 338.342 134.286 342.973 134.084C344.672 137.664 348.421 141.282 354.554 144.809C354.554 144.809 367.712 128.357 369.787 125.651C371.862 122.945 371.474 117.135 367.06 113.674C362.646 110.213 347.954 99.4259 347.954 99.4259M327.772 125.583L347.954 99.4259M327.772 125.583L326.144 120.265L341.997 100.001L347.954 99.4259M357.388 124.15C358.932 124.5 360.29 125.388 361.204 126.644C362.117 127.9 362.523 129.437 362.344 130.963C362.165 132.49 361.414 133.899 360.232 134.925C359.051 135.95 357.522 136.52 355.936 136.526C354.35 136.532 352.816 135.975 351.627 134.958C350.437 133.942 349.674 132.539 349.482 131.014C349.29 129.489 349.683 127.948 350.586 126.685C351.489 125.422 352.84 124.524 354.381 124.162M347.251 139.606C345.876 140.84 344.098 141.571 342.225 141.671C340.352 141.772 338.502 141.236 336.994 140.156C335.485 139.076 334.414 137.52 333.964 135.756C333.515 133.993 333.715 132.132 334.531 130.497M357.386 121.323C358.072 120.56 358.64 119.704 359.07 118.782M80.1113 97.3331C80.1113 97.3331 85.906 85.1255 84.4526 80.8621C87.5528 78.3103 90.1358 73.8366 91.9847 67.1648C91.9847 67.1648 72.072 59.3431 68.8209 58.1401C65.5698 56.937 59.8986 58.8698 57.6514 63.9205C55.4041 68.9712 48.6513 85.586 48.6513 85.586M80.1113 97.3331L48.6513 85.586M80.1113 97.3331L75.2641 100.289L50.8338 90.985L48.6513 85.586M70.6804 70.1069C70.6115 68.5721 71.1267 67.0662 72.1283 65.875C73.1299 64.6837 74.5482 63.8899 76.114 63.6442C77.6799 63.3985 79.2845 63.718 80.6232 64.5421C81.9619 65.3662 82.9418 66.6375 83.3767 68.1149C83.8117 69.5922 83.6716 71.1728 82.983 72.5568C82.2944 73.9407 81.1051 75.0317 79.641 75.6228C78.1768 76.2138 76.5395 76.2638 75.0398 75.7633C73.54 75.2627 72.2822 74.2465 71.5049 72.9073M88.7856 75.3801C90.385 76.3291 91.5919 77.7893 92.1981 79.5083C92.8042 81.2273 92.7715 83.0974 92.1055 84.7956C91.4395 86.4937 90.1821 87.9133 88.5504 88.8093C86.9188 89.7053 85.0153 90.0213 83.1686 89.7028M67.8703 70.8725C66.9263 70.4392 65.922 70.1416 64.8893 69.9892M68.2988 36.3882C68.2988 36.3882 82.1254 37.4919 85.7664 34.7127C89.3019 36.6626 94.5259 37.4853 101.632 36.8888C101.632 36.8888 102.42 16.0928 102.477 12.7227C102.534 9.35262 98.7209 4.85108 93.0517 4.53111C87.3824 4.21114 68.9515 3.74088 68.9515 3.74088M68.2988 36.3882L68.9515 3.74088M68.2988 36.3882L63.7746 32.986L64.4575 7.57181L68.9515 3.74088M91.499 18.5032C92.9649 17.9162 94.6023 17.8707 96.1006 18.3754C97.5988 18.88 98.8537 19.8997 99.6271 21.241C100.4 22.5823 100.638 24.1519 100.296 25.6519C99.9537 27.152 99.0546 28.4781 97.7695 29.3787C96.4844 30.2793 94.9026 30.6917 93.3243 30.5378C91.746 30.3838 90.281 29.6741 89.2072 28.5433C88.1334 27.4126 87.5255 25.9394 87.4989 24.4034C87.4724 22.8674 88.0289 21.3753 89.063 20.2104M92.5667 36.7837C92.1921 38.5636 91.1874 40.1609 89.7262 41.2999C88.265 42.4388 86.439 43.0479 84.5635 43.0219C82.688 42.9959 80.8807 42.3364 79.4538 41.1573C78.0269 39.9783 77.0699 38.3538 76.7481 36.5642M89.796 16.2071C89.8941 15.1999 89.8398 14.1842 89.6348 13.1921M111.33 80.1773C111.33 80.1773 125.189 79.5657 128.435 76.3597C132.198 77.8575 137.488 78.0287 144.458 76.5601C144.458 76.5601 142.503 55.8363 142.116 52.4867C141.729 49.1371 137.354 45.1428 131.689 45.5251C126.024 45.9074 107.682 47.7157 107.682 47.7157M111.33 80.1773L107.682 47.7157M111.33 80.1773L106.395 77.3612L103.728 52.0699L107.682 47.7157M131.988 59.575C133.365 58.8118 134.983 58.5646 136.535 58.8802C138.088 59.1959 139.466 60.0524 140.41 61.2874C141.353 62.5223 141.796 64.0497 141.654 65.5797C141.512 67.1098 140.794 68.536 139.638 69.5879C138.482 70.6398 136.968 71.244 135.382 71.2861C133.796 71.3282 132.25 70.8051 131.036 69.816C129.822 68.827 129.025 67.4409 128.797 65.9207C128.568 64.4005 128.924 62.8519 129.796 61.5688M135.452 77.5746C135.315 79.3862 134.529 81.0946 133.229 82.4046C131.93 83.7146 130.199 84.544 128.335 84.7496C126.472 84.9553 124.592 84.5242 123.022 83.5309C121.451 82.5376 120.288 81.0444 119.734 79.3091M129.997 57.5078C129.961 56.4966 129.774 55.4959 129.44 54.5372M190.835 130.177C190.835 130.177 176.976 129.566 173.731 126.36C169.967 127.857 164.678 128.029 157.708 126.56C157.708 126.56 159.663 105.836 160.05 102.487C160.437 99.1371 164.811 95.1429 170.476 95.5252C176.141 95.9075 194.484 97.7156 194.484 97.7156M190.835 130.177L194.484 97.7156M190.835 130.177L195.77 127.361L198.437 102.07L194.484 97.7156M170.178 109.575C168.801 108.812 167.183 108.565 165.63 108.88C164.078 109.196 162.699 110.052 161.756 111.287C160.812 112.522 160.369 114.05 160.512 115.58C160.654 117.11 161.371 118.536 162.527 119.588C163.683 120.64 165.198 121.244 166.784 121.286C168.369 121.328 169.916 120.805 171.13 119.816C172.344 118.827 173.14 117.441 173.369 115.921C173.597 114.4 173.242 112.852 172.369 111.569M166.713 127.575C166.851 129.386 167.637 131.095 168.936 132.405C170.236 133.715 171.967 134.544 173.83 134.75C175.694 134.955 177.573 134.524 179.144 133.531C180.714 132.538 181.877 131.044 182.432 129.309M172.169 107.508C172.204 106.497 172.392 105.496 172.726 104.537M174.043 30.5146C174.043 30.5146 161.9 37.0142 157.403 35.9259C155.004 39.1089 150.589 41.9345 143.855 44.2137C143.855 44.2137 134.327 25.561 132.848 22.5101C131.369 19.4592 132.939 13.839 137.974 11.295C143.009 8.75096 159.619 0.999969 159.619 0.999969M174.043 30.5146L159.619 0.999969M174.043 30.5146L176.728 25.6145L165.34 2.70842L159.619 0.999969M145.309 23.4206C143.723 23.4676 142.21 24.0766 141.058 25.132C139.905 26.1875 139.193 27.616 139.056 29.1465C138.918 30.677 139.366 32.203 140.314 33.4349C141.261 34.6669 142.643 35.5192 144.197 35.83C145.75 36.1408 147.367 35.8885 148.742 35.121C150.116 34.3536 151.151 33.1243 151.651 31.6665C152.152 30.2087 152.082 28.6237 151.456 27.2123C150.829 25.8009 149.69 24.6613 148.253 24.0097M152.078 40.5163C153.174 41.9907 154.767 43.0484 156.582 43.5066C158.397 43.9648 160.32 43.7948 162.019 43.026C163.719 42.2572 165.088 40.9378 165.89 39.2956C166.691 37.6535 166.876 35.7917 166.412 34.0318M145.889 20.65C145.373 19.7704 144.992 18.8225 144.759 17.8363M56.5532 193.781C56.5532 189.032 52.5774 185.181 47.673 185.181C42.7686 185.181 38.7927 189.032 38.7927 193.781C38.7927 198.531 42.7686 202.381 47.673 202.381C52.5774 202.381 56.5532 198.531 56.5532 193.781ZM129.529 122.488C124.799 121.233 119.914 123.929 118.618 128.51C117.322 133.091 120.106 137.822 124.836 139.077C129.566 140.332 134.451 137.636 135.747 133.055C137.043 128.474 134.259 123.743 129.529 122.488ZM167.207 166.999C162.477 165.744 157.592 168.44 156.296 173.021C155 177.602 157.784 182.333 162.514 183.588C167.244 184.843 172.129 182.147 173.425 177.566C174.721 172.985 171.937 168.254 167.207 166.999ZM291.117 131.999C286.387 130.744 281.502 133.44 280.206 138.021C278.91 142.602 281.694 147.333 286.424 148.588C291.155 149.843 296.04 147.147 297.336 142.566C298.631 137.985 295.848 133.254 291.117 131.999ZM345.845 58.9992C341.114 57.7442 336.229 60.4403 334.933 65.0211C333.637 69.6019 336.421 74.3329 341.152 75.5879C345.882 76.8429 350.767 74.1468 352.063 69.566C353.359 64.9852 350.575 60.2543 345.845 58.9992ZM197.152 47.9992C192.422 46.7442 187.537 49.4403 186.241 54.0211C184.945 58.6019 187.729 63.3329 192.459 64.5879C197.189 65.8429 202.074 63.1468 203.37 58.566C204.666 53.9852 201.882 49.2543 197.152 47.9992ZM233.86 88.9874C229.444 91.0539 227.594 96.196 229.728 100.473C231.862 104.749 237.171 106.541 241.587 104.474C246.003 102.408 247.853 97.2656 245.719 92.9891C243.585 88.7125 238.276 86.9209 233.86 88.9874ZM27.8079 39.9992C23.0778 38.7442 18.1928 41.4403 16.8968 46.0211C15.6009 50.6019 18.3848 55.3329 23.115 56.5879C27.8451 57.8429 32.7301 55.1468 34.0261 50.566C35.322 45.9852 32.538 41.2543 27.8079 39.9992ZM25.7428 104.999C21.0127 103.744 16.1276 106.44 14.8317 111.021C13.5357 115.602 16.3197 120.333 21.0498 121.588C25.7799 122.843 30.665 120.147 31.9609 115.566C33.2568 110.985 30.4729 106.254 25.7428 104.999ZM107.055 193.609C107.055 189.757 103.83 186.633 99.8516 186.633C95.8733 186.633 92.6483 189.757 92.6483 193.609C92.6483 197.462 95.8733 200.585 99.8516 200.585C103.83 200.585 107.055 197.462 107.055 193.609ZM115.201 198.119C115.445 197.609 115.493 197.03 115.336 196.489C115.178 195.947 114.826 195.477 114.343 195.165C113.86 194.852 113.277 194.717 112.7 194.784C112.123 194.851 111.59 195.115 111.197 195.529C110.841 194.698 110.772 193.778 110.997 192.906C111.223 192.033 111.733 191.254 112.451 190.683C113.169 190.113 114.057 189.781 114.985 189.736C115.913 189.692 116.831 189.938 117.603 190.438C118.376 190.937 118.962 191.664 119.275 192.511C119.588 193.358 119.612 194.28 119.343 195.141C119.074 196.002 118.526 196.756 117.78 197.293C117.034 197.829 116.13 198.119 115.201 198.119ZM100.877 197.774C101.069 197.226 101.052 196.629 100.829 196.092C100.606 195.555 100.192 195.112 99.6615 194.845C99.1311 194.578 98.5195 194.504 97.9373 194.635C97.3551 194.767 96.8408 195.096 96.4875 195.563C96.028 194.753 95.8499 193.821 95.9794 192.905C96.1089 191.989 96.5391 191.137 97.2065 190.476C97.8739 189.815 98.7432 189.379 99.6859 189.233C100.629 189.087 101.595 189.239 102.442 189.665C103.289 190.092 103.972 190.771 104.39 191.602C104.808 192.433 104.939 193.373 104.763 194.282C104.588 195.19 104.115 196.02 103.415 196.649C102.715 197.278 101.825 197.672 100.876 197.773L100.877 197.774ZM104.839 186.363C104.839 189.18 106.936 190.325 109.714 190.325C112.187 190.325 113.591 187.073 113.591 187.073C111.161 186.072 108.539 185.578 105.898 185.625C107.421 184.257 109.337 183.37 111.393 183.082C111.393 183.082 110.539 182.462 107.608 182.462C105.227 182.461 104.839 184.914 104.839 186.363ZM69.4513 147.177C71.8815 144.126 71.2983 139.746 68.1485 137.392C64.9988 135.038 60.4754 135.603 58.0452 138.654C55.6149 141.704 56.1982 146.085 59.3479 148.438C62.4976 150.792 67.0211 150.227 69.4513 147.177ZM73.0559 155.566C73.5714 155.307 73.974 154.877 74.1912 154.355C74.4084 153.833 74.4259 153.253 74.2404 152.72C74.055 152.187 73.6789 151.735 73.1799 151.447C72.681 151.158 72.092 151.052 71.5193 151.147C71.7623 150.279 72.2872 149.509 73.0164 148.952C73.7456 148.395 74.6405 148.079 75.569 148.052C76.4975 148.025 77.4104 148.288 78.1728 148.802C78.9353 149.316 79.5069 150.053 79.8033 150.906C80.0998 151.758 80.1053 152.681 79.8191 153.536C79.5328 154.392 78.9701 155.136 78.2138 155.659C77.4575 156.181 76.5479 156.454 75.6191 156.437C74.6904 156.421 73.7918 156.115 73.0559 155.566ZM61.9328 146.819C62.4307 146.499 62.7937 146.016 62.9561 145.459C63.1184 144.902 63.0695 144.307 62.8181 143.781C62.5666 143.256 62.1294 142.835 61.5854 142.595C61.0413 142.355 60.4265 142.311 59.8522 142.472C59.9997 141.558 60.4466 140.715 61.1269 140.066C61.8072 139.418 62.6849 138.998 63.6304 138.87C64.5758 138.741 65.5389 138.91 66.3773 139.352C67.2158 139.795 67.8853 140.486 68.2868 141.325C68.6884 142.164 68.8008 143.105 68.6074 144.011C68.414 144.916 67.9251 145.737 67.2128 146.353C66.5006 146.969 65.6028 147.346 64.652 147.43C63.7012 147.514 62.7478 147.299 61.9326 146.818L61.9328 146.819ZM72.2675 140.129C70.4906 142.359 71.4288 144.506 73.6279 146.15C75.5859 147.613 78.749 145.869 78.749 145.869C77.4564 143.638 75.6922 141.696 73.5718 140.171C75.6402 139.988 77.717 140.42 79.5259 141.408C79.5259 141.408 79.2409 140.412 76.9208 138.679C75.0362 137.269 73.1815 138.982 72.2675 140.129ZM229.153 151.514C231.584 148.464 231 144.083 227.851 141.73C224.701 139.376 220.178 139.941 217.747 142.991C215.317 146.042 215.9 150.422 219.05 152.776C222.2 155.129 226.723 154.564 229.153 151.514ZM232.758 159.904C233.274 159.644 233.676 159.215 233.893 158.693C234.111 158.171 234.128 157.591 233.943 157.057C233.757 156.524 233.381 156.073 232.882 155.784C232.383 155.496 231.794 155.389 231.222 155.484C231.465 154.616 231.989 153.847 232.719 153.289C233.448 152.732 234.343 152.417 235.271 152.39C236.2 152.363 237.113 152.625 237.875 153.139C238.638 153.653 239.209 154.391 239.506 155.243C239.802 156.096 239.808 157.018 239.521 157.874C239.235 158.73 238.672 159.474 237.916 159.996C237.16 160.519 236.25 160.792 235.321 160.775C234.393 160.758 233.494 160.453 232.758 159.904ZM221.635 151.157C222.133 150.836 222.496 150.354 222.658 149.796C222.821 149.239 222.772 148.644 222.52 148.119C222.269 147.593 221.832 147.173 221.288 146.933C220.744 146.692 220.129 146.649 219.554 146.809C219.702 145.896 220.149 145.053 220.829 144.404C221.509 143.755 222.387 143.336 223.333 143.207C224.278 143.079 225.241 143.248 226.08 143.69C226.918 144.132 227.587 144.824 227.989 145.663C228.391 146.501 228.503 147.443 228.31 148.348C228.116 149.254 227.627 150.075 226.915 150.691C226.203 151.306 225.305 151.684 224.354 151.768C223.403 151.851 222.45 151.637 221.635 151.155L221.635 151.157ZM231.97 144.466C230.193 146.697 231.131 148.844 233.33 150.487C235.288 151.95 238.451 150.206 238.451 150.206C237.159 147.975 235.394 146.034 233.274 144.509C235.342 144.326 237.419 144.758 239.228 145.746C239.228 145.746 238.943 144.75 236.623 143.016C234.738 141.607 232.884 143.319 231.97 144.466ZM264.204 190.662C263.192 186.936 259.252 184.71 255.405 185.69C251.557 186.67 249.259 190.485 250.271 194.211C251.283 197.937 255.222 200.163 259.07 199.183C262.917 198.203 265.216 194.388 264.204 190.662ZM273.266 193.016C273.368 192.462 273.263 191.891 272.968 191.406C272.674 190.921 272.21 190.554 271.661 190.37C271.111 190.187 270.512 190.2 269.972 190.407C269.431 190.614 268.985 191.001 268.713 191.498C268.151 190.782 267.842 189.909 267.831 189.01C267.821 188.11 268.109 187.231 268.653 186.502C269.198 185.774 269.97 185.234 270.856 184.962C271.741 184.691 272.694 184.703 273.572 184.996C274.45 185.288 275.208 185.847 275.733 186.589C276.259 187.331 276.524 188.217 276.49 189.116C276.455 190.015 276.124 190.879 275.543 191.582C274.963 192.284 274.164 192.787 273.266 193.016ZM259.323 196.212C259.365 195.634 259.191 195.061 258.835 194.596C258.478 194.132 257.961 193.806 257.378 193.678C256.795 193.551 256.184 193.629 255.655 193.9C255.127 194.171 254.716 194.616 254.497 195.155C253.84 194.484 253.423 193.626 253.307 192.709C253.192 191.791 253.384 190.861 253.856 190.058C254.328 189.254 255.054 188.618 255.928 188.245C256.801 187.871 257.775 187.78 258.706 187.984C259.638 188.188 260.476 188.676 261.099 189.377C261.722 190.078 262.095 190.954 262.164 191.876C262.233 192.798 261.994 193.718 261.482 194.498C260.97 195.279 260.213 195.879 259.322 196.211L259.323 196.212ZM260.157 184.2C260.897 186.924 263.226 187.515 265.912 186.831C268.304 186.221 268.808 182.73 268.808 182.73C266.194 182.361 263.53 182.529 260.988 183.225C262.101 181.527 263.721 180.197 265.634 179.412C265.634 179.412 264.645 179.023 261.811 179.745C259.508 180.331 259.777 182.798 260.157 184.2ZM291.051 83.6616C290.039 79.9356 286.099 77.7095 282.252 78.6896C278.405 79.6697 276.106 83.4847 277.118 87.2107C278.13 90.9367 282.069 93.1627 285.917 92.1826C289.764 91.2026 292.063 87.3876 291.051 83.6616ZM300.114 86.0164C300.216 85.4624 300.11 84.8913 299.816 84.4061C299.521 83.921 299.057 83.5537 298.508 83.3705C297.959 83.1872 297.36 83.2002 296.819 83.4069C296.279 83.6137 295.832 84.0007 295.561 84.4981C294.999 83.7817 294.69 82.9094 294.679 82.0099C294.668 81.1103 294.956 80.2313 295.501 79.5025C296.045 78.7737 296.817 78.2337 297.703 77.9624C298.588 77.6911 299.541 77.7027 300.419 77.9956C301.297 78.2885 302.055 78.8471 302.58 79.589C303.106 80.3309 303.371 81.2167 303.337 82.1157C303.303 83.0147 302.971 83.8791 302.39 84.5815C301.81 85.2839 301.012 85.787 300.114 86.0164ZM286.17 89.2115C286.212 88.6339 286.039 88.061 285.682 87.5963C285.325 87.1317 284.808 86.806 284.225 86.6783C283.642 86.5506 283.031 86.6293 282.503 86.9001C281.974 87.1708 281.563 87.6159 281.344 88.1546C280.687 87.484 280.27 86.6264 280.154 85.7086C280.039 84.7908 280.232 83.8614 280.703 83.0576C281.175 82.2539 281.901 81.6183 282.775 81.2449C283.648 80.8714 284.622 80.7799 285.554 80.9837C286.485 81.1876 287.324 81.6761 287.946 82.377C288.569 83.0779 288.942 83.9542 289.011 84.8763C289.08 85.7985 288.841 86.7177 288.329 87.4982C287.817 88.2787 287.06 88.8791 286.169 89.2108L286.17 89.2115ZM287.004 77.1998C287.744 79.9242 290.073 80.5148 292.76 79.8306C295.151 79.2213 295.655 75.7303 295.655 75.7303C293.042 75.3606 290.377 75.5292 287.835 76.2251C288.948 74.5268 290.568 73.1968 292.481 72.4122C292.481 72.4122 291.492 72.023 288.658 72.7449C286.355 73.3305 286.624 75.7985 287.004 77.1998ZM323.307 178.662C324.319 174.936 328.259 172.71 332.106 173.69C335.953 174.67 338.252 178.485 337.24 182.211C336.228 185.937 332.289 188.163 328.441 187.183C324.594 186.203 322.295 182.388 323.307 178.662ZM314.244 181.016C314.142 180.462 314.248 179.891 314.542 179.406C314.837 178.921 315.301 178.554 315.85 178.37C316.399 178.187 316.998 178.2 317.539 178.407C318.079 178.614 318.526 179.001 318.797 179.498C319.359 178.782 319.668 177.909 319.679 177.01C319.69 176.11 319.402 175.231 318.857 174.502C318.313 173.774 317.541 173.234 316.655 172.962C315.77 172.691 314.817 172.703 313.939 172.996C313.061 173.288 312.303 173.847 311.777 174.589C311.252 175.331 310.987 176.217 311.021 177.116C311.055 178.015 311.387 178.879 311.968 179.582C312.548 180.284 313.346 180.787 314.244 181.016ZM328.188 184.212C328.146 183.634 328.319 183.061 328.676 182.596C329.033 182.132 329.55 181.806 330.133 181.678C330.716 181.551 331.327 181.629 331.855 181.9C332.384 182.171 332.795 182.616 333.014 183.155C333.671 182.484 334.088 181.626 334.204 180.709C334.319 179.791 334.126 178.861 333.655 178.058C333.183 177.254 332.457 176.618 331.583 176.245C330.71 175.871 329.736 175.78 328.804 175.984C327.873 176.188 327.034 176.676 326.412 177.377C325.789 178.078 325.416 178.954 325.347 179.876C325.278 180.798 325.517 181.718 326.029 182.498C326.541 183.279 327.298 183.879 328.189 184.211L328.188 184.212ZM327.354 172.2C326.614 174.924 324.285 175.515 321.598 174.831C319.207 174.221 318.703 170.73 318.703 170.73C321.316 170.361 323.981 170.529 326.523 171.225C325.41 169.527 323.79 168.197 321.877 167.412C321.877 167.412 322.866 167.023 325.7 167.745C328.003 168.331 327.734 170.798 327.354 172.2ZM303.688 21.6616C304.7 17.9356 308.639 15.7095 312.487 16.6896C316.334 17.6697 318.633 21.4847 317.621 25.2107C316.609 28.9367 312.669 31.1627 308.822 30.1826C304.975 29.2026 302.676 25.3876 303.688 21.6616ZM294.625 24.0164C294.523 23.4624 294.629 22.8913 294.923 22.4061C295.218 21.921 295.682 21.5537 296.231 21.3705C296.78 21.1872 297.379 21.2002 297.92 21.4069C298.46 21.6137 298.906 22.0007 299.178 22.4981C299.74 21.7817 300.049 20.9094 300.06 20.0099C300.071 19.1103 299.783 18.2313 299.238 17.5025C298.694 16.7737 297.922 16.2337 297.036 15.9624C296.15 15.6911 295.198 15.7027 294.32 15.9956C293.442 16.2885 292.684 16.8471 292.158 17.589C291.633 18.3309 291.368 19.2167 291.402 20.1157C291.436 21.0147 291.768 21.8791 292.349 22.5815C292.929 23.2839 293.727 23.787 294.625 24.0164ZM308.569 27.2115C308.527 26.6339 308.7 26.061 309.057 25.5963C309.414 25.1317 309.93 24.806 310.514 24.6783C311.097 24.5506 311.708 24.6293 312.236 24.9001C312.765 25.1708 313.176 25.6159 313.395 26.1546C314.052 25.484 314.469 24.6264 314.584 23.7086C314.7 22.7908 314.507 21.8614 314.036 21.0576C313.564 20.2539 312.837 19.6183 311.964 19.2449C311.091 18.8714 310.117 18.7799 309.185 18.9837C308.254 19.1876 307.415 19.6761 306.793 20.377C306.17 21.0779 305.797 21.9542 305.728 22.8763C305.659 23.7985 305.898 24.7177 306.41 25.4982C306.921 26.2787 307.679 26.8791 308.57 27.2108L308.569 27.2115ZM307.734 15.1998C306.994 17.9242 304.666 18.5148 301.979 17.8306C299.588 17.2213 299.084 13.7303 299.084 13.7303C301.697 13.3606 304.362 13.5292 306.904 14.2251C305.791 12.5268 304.17 11.1968 302.258 10.4122C302.258 10.4122 303.247 10.023 306.081 10.7449C308.384 11.3305 308.115 13.7985 307.734 15.1998ZM250.78 30.6616C249.768 26.9356 245.829 24.7095 241.981 25.6896C238.134 26.6697 235.835 30.4847 236.847 34.2107C237.859 37.9367 241.799 40.1627 245.646 39.1826C249.493 38.2026 251.792 34.3876 250.78 30.6616ZM259.843 33.0164C259.945 32.4624 259.839 31.8913 259.545 31.4061C259.25 30.921 258.787 30.5537 258.237 30.3705C257.688 30.1872 257.089 30.2002 256.548 30.4069C256.008 30.6137 255.561 31.0007 255.29 31.4981C254.728 30.7817 254.419 29.9094 254.408 29.0099C254.397 28.1103 254.685 27.2313 255.23 26.5025C255.774 25.7737 256.546 25.2337 257.432 24.9624C258.318 24.6911 259.27 24.7027 260.148 24.9956C261.026 25.2885 261.784 25.8471 262.31 26.589C262.835 27.3309 263.1 28.2167 263.066 29.1157C263.032 30.0147 262.7 30.8791 262.119 31.5815C261.539 32.2839 260.741 32.787 259.843 33.0164ZM245.899 36.2115C245.941 35.6339 245.768 35.061 245.411 34.5963C245.054 34.1317 244.538 33.806 243.954 33.6783C243.371 33.5506 242.76 33.6293 242.232 33.9001C241.703 34.1708 241.292 34.6159 241.073 35.1546C240.416 34.484 239.999 33.6264 239.884 32.7086C239.768 31.7908 239.961 30.8614 240.432 30.0576C240.904 29.2539 241.631 28.6183 242.504 28.2449C243.377 27.8714 244.351 27.7799 245.283 27.9837C246.214 28.1876 247.053 28.6761 247.675 29.377C248.298 30.0779 248.671 30.9542 248.74 31.8763C248.809 32.7985 248.57 33.7177 248.058 34.4982C247.547 35.2787 246.789 35.8791 245.898 36.2108L245.899 36.2115ZM246.734 24.1998C247.474 26.9242 249.802 27.5148 252.489 26.8306C254.88 26.2213 255.384 22.7303 255.384 22.7303C252.771 22.3606 250.106 22.5292 247.564 23.2251C248.677 21.5268 250.298 20.1968 252.21 19.4122C252.21 19.4122 251.221 19.023 248.387 19.7449C246.084 20.3305 246.353 22.7985 246.734 24.1998ZM349.609 124.859C352.036 121.806 351.449 117.426 348.297 115.076C345.145 112.725 340.622 113.294 338.195 116.347C335.767 119.399 336.355 123.779 339.507 126.13C342.659 128.481 347.182 127.912 349.609 124.859ZM353.222 133.246C353.737 132.985 354.14 132.555 354.356 132.033C354.573 131.511 354.59 130.931 354.404 130.398C354.218 129.865 353.841 129.413 353.342 129.125C352.843 128.838 352.254 128.732 351.681 128.827C351.923 127.959 352.447 127.189 353.176 126.631C353.905 126.073 354.799 125.757 355.728 125.729C356.656 125.701 357.569 125.963 358.332 126.476C359.095 126.989 359.668 127.726 359.965 128.579C360.262 129.431 360.269 130.353 359.983 131.209C359.698 132.065 359.136 132.81 358.38 133.333C357.624 133.856 356.715 134.13 355.786 134.114C354.857 134.098 353.958 133.794 353.222 133.246ZM342.09 124.509C342.588 124.188 342.95 123.705 343.112 123.147C343.274 122.59 343.225 121.995 342.973 121.47C342.721 120.945 342.283 120.524 341.739 120.285C341.195 120.045 340.58 120.002 340.006 120.163C340.152 119.25 340.598 118.406 341.278 117.756C341.958 117.107 342.835 116.687 343.78 116.557C344.725 116.428 345.689 116.596 346.528 117.038C347.367 117.479 348.037 118.17 348.439 119.008C348.841 119.847 348.955 120.788 348.762 121.694C348.57 122.6 348.082 123.421 347.37 124.038C346.658 124.654 345.761 125.032 344.81 125.117C343.859 125.201 342.906 124.988 342.09 124.507L342.09 124.509ZM352.419 117.809C350.644 120.04 351.584 122.187 353.785 123.828C355.744 125.289 358.906 123.542 358.906 123.542C357.611 121.313 355.845 119.373 353.723 117.85C355.791 117.665 357.868 118.095 359.678 119.081C359.678 119.081 359.392 118.086 357.07 116.354C355.184 114.946 353.331 116.661 352.419 117.809ZM73.488 77.168C69.7972 75.73 65.6016 77.4619 64.1167 81.0362C62.6319 84.6106 64.4203 88.6738 68.1111 90.1118C71.8019 91.5498 75.9975 89.8179 77.4824 86.2435C78.9672 82.6692 77.1789 78.6059 73.488 77.168ZM80.8489 71.5323C80.4508 71.1223 79.9146 70.8635 79.337 70.8027C78.7593 70.7418 78.1782 70.8828 77.6984 71.2003C77.2187 71.5178 76.8719 71.9909 76.7205 72.5342C76.5692 73.0775 76.6233 73.6553 76.8732 74.1634C75.9443 74.1724 75.0371 73.8919 74.2854 73.3633C73.5338 72.8347 72.9776 72.0861 72.6989 71.2279C72.4202 70.3698 72.4338 69.4476 72.7377 68.5975C73.0416 67.7474 73.6197 67.0145 74.3866 66.5069C75.1536 65.9994 76.0687 65.7441 76.9969 65.7787C77.9251 65.8134 78.8173 66.1362 79.5415 66.6995C80.2658 67.2627 80.7839 68.0366 81.0193 68.9068C81.2547 69.777 81.195 70.6975 80.8489 71.5323ZM75.1722 84.2731C74.7186 83.896 74.1405 83.6885 73.5427 83.6883C72.9448 83.6881 72.3666 83.8952 71.9127 84.272C71.4588 84.6488 71.1592 85.1706 71.068 85.7428C70.9769 86.3151 71.1003 86.9 71.4158 87.3918C70.4679 87.502 69.5085 87.3142 68.6793 86.856C67.8501 86.3978 67.195 85.6934 66.8108 84.847C66.4266 84.0006 66.3336 83.057 66.5456 82.1555C66.7576 81.254 67.2633 80.4424 67.9881 79.8406C68.7129 79.2388 69.6183 78.8786 70.5706 78.8133C71.5229 78.748 72.4717 78.981 73.2768 79.4779C74.0819 79.9748 74.7007 80.7093 75.0417 81.5728C75.3828 82.4364 75.4281 83.3833 75.1709 84.2737L75.1722 84.2731ZM65.7195 76.4545C68.4181 77.5059 70.2978 76.049 71.3345 73.5534C72.2575 71.3314 69.6663 68.856 69.6663 68.856C67.7998 70.6659 66.3487 72.837 65.408 75.2272C64.6653 73.3487 64.5309 71.2958 65.0225 69.3416C65.0225 69.3416 64.1099 69.8774 63.0161 72.5103C62.1264 74.6493 64.3314 75.9137 65.7195 76.4545ZM85.6056 23.4709C85.7403 19.6204 82.6262 16.3933 78.6502 16.2629C74.6742 16.1325 71.3419 19.1483 71.2072 22.9988C71.0726 26.8494 74.1867 30.0765 78.1627 30.2069C82.1387 30.3373 85.471 27.3215 85.6056 23.4709ZM93.5895 28.2453C93.8514 27.743 93.9193 27.1666 93.7811 26.62C93.6428 26.0734 93.3074 25.5927 92.8354 25.2645C92.3634 24.9363 91.7858 24.7822 91.2068 24.8301C90.6279 24.878 90.0856 25.1246 89.6779 25.5256C89.3519 24.6832 89.3142 23.7616 89.5704 22.8969C89.8265 22.0322 90.363 21.2702 91.1006 20.7234C91.8382 20.1766 92.7378 19.8739 93.6666 19.8601C94.5954 19.8463 95.5042 20.1221 96.2588 20.6468C97.0133 21.1714 97.5737 21.9171 97.8572 22.7738C98.1406 23.6305 98.1321 24.5528 97.833 25.4044C97.5338 26.2561 96.9598 26.992 96.1957 27.5036C95.4316 28.0151 94.5179 28.2751 93.5895 28.2453ZM79.2857 27.4311C79.4967 26.8894 79.5006 26.2924 79.2965 25.7482C79.0925 25.2039 78.694 24.7484 78.1733 24.464C77.6525 24.1796 77.0438 24.0851 76.4573 24.1976C75.8709 24.3102 75.3454 24.6223 74.9759 25.0775C74.5451 24.2525 74.3996 23.3151 74.561 22.4038C74.7224 21.4925 75.1822 20.6557 75.8723 20.0168C76.5625 19.378 77.4464 18.971 78.3937 18.856C79.341 18.7409 80.3014 18.924 81.1331 19.378C81.9647 19.8321 82.6235 20.5331 83.0123 21.3776C83.401 22.2221 83.499 23.1652 83.2918 24.0678C83.0846 24.9703 82.5832 25.7844 81.8617 26.3899C81.1401 26.9953 80.2366 27.36 79.2847 27.4301L79.2857 27.4311ZM83.6442 16.1565C83.5457 18.9719 85.6017 20.1849 88.3778 20.276C90.8494 20.357 92.3665 17.1529 92.3665 17.1529C89.9724 16.0724 87.3698 15.4933 84.7288 15.4536C86.298 14.136 88.2444 13.3123 90.3089 13.0921C90.3089 13.0921 89.4771 12.4445 86.5483 12.3485C84.1685 12.2694 83.6948 14.7083 83.6442 16.1565ZM126.796 65.2295C126.423 61.3938 122.91 58.5772 118.949 58.9386C114.988 59.3 112.08 62.7024 112.453 66.5382C112.826 70.3739 116.34 73.1905 120.3 72.8291C124.261 72.4677 127.169 69.0653 126.796 65.2295ZM135.343 68.9796C135.537 68.4491 135.528 67.869 135.319 67.3439C135.11 66.8188 134.714 66.3834 134.203 66.1161C133.692 65.8489 133.099 65.7674 132.531 65.8863C131.963 66.0052 131.457 66.3168 131.106 66.7648C130.671 65.9695 130.513 65.0602 130.653 64.1709C130.793 63.2816 131.225 62.4596 131.885 61.8262C132.544 61.1928 133.397 60.7816 134.316 60.6533C135.236 60.525 136.173 60.6863 136.991 61.1136C137.808 61.5409 138.462 62.2113 138.856 63.0261C139.25 63.8408 139.363 64.7566 139.178 65.6382C138.994 66.5198 138.521 67.3206 137.831 67.9223C137.14 68.5239 136.268 68.8947 135.343 68.9796ZM121.049 69.9373C121.187 69.374 121.112 68.7814 120.838 68.2668C120.564 67.7522 120.109 67.3495 119.555 67.1317C119.001 66.9139 118.385 66.8953 117.818 67.0793C117.251 67.2633 116.771 67.6377 116.465 68.1348C115.929 67.3697 115.661 66.4579 115.701 65.5341C115.741 64.6103 116.087 63.7236 116.688 63.0048C117.288 62.2859 118.111 61.7732 119.036 61.5422C119.96 61.3112 120.937 61.3742 121.822 61.7219C122.706 62.0697 123.452 62.6837 123.949 63.4733C124.445 64.2629 124.666 65.1863 124.58 66.107C124.493 67.0278 124.103 67.8971 123.467 68.5867C122.831 69.2763 121.983 69.7495 121.048 69.9364L121.049 69.9373ZM123.888 58.2168C124.161 61.0213 126.36 61.9708 129.125 61.7185C131.587 61.4938 132.671 58.1286 132.671 58.1286C130.154 57.3523 127.496 57.0992 124.872 57.3858C126.255 55.8852 128.077 54.828 130.095 54.3549C130.095 54.3549 129.185 53.8152 126.268 54.0814C123.897 54.2967 123.748 56.7741 123.888 58.2168ZM175.369 115.23C175.742 111.394 179.256 108.577 183.217 108.939C187.177 109.3 190.086 112.702 189.712 116.538C189.339 120.374 185.826 123.19 181.865 122.829C177.904 122.468 174.996 119.065 175.369 115.23ZM166.822 118.98C166.629 118.449 166.637 117.869 166.846 117.344C167.055 116.819 167.451 116.383 167.962 116.116C168.474 115.849 169.067 115.767 169.635 115.886C170.203 116.005 170.708 116.317 171.06 116.765C171.494 115.97 171.653 115.06 171.512 114.171C171.372 113.282 170.94 112.46 170.281 111.826C169.621 111.193 168.769 110.782 167.849 110.653C166.93 110.525 165.992 110.686 165.175 111.114C164.357 111.541 163.703 112.211 163.309 113.026C162.916 113.841 162.803 114.757 162.987 115.638C163.172 116.52 163.644 117.321 164.335 117.922C165.026 118.524 165.898 118.895 166.822 118.98ZM181.117 119.937C180.979 119.374 181.053 118.781 181.327 118.267C181.601 117.752 182.056 117.35 182.61 117.132C183.164 116.914 183.781 116.895 184.347 117.079C184.914 117.263 185.394 117.638 185.701 118.135C186.237 117.37 186.504 116.458 186.464 115.534C186.424 114.61 186.078 113.724 185.478 113.005C184.877 112.286 184.054 111.773 183.13 111.542C182.205 111.311 181.229 111.374 180.344 111.722C179.459 112.07 178.714 112.684 178.217 113.473C177.72 114.263 177.499 115.186 177.586 116.107C177.672 117.028 178.063 117.897 178.699 118.587C179.335 119.276 180.183 119.749 181.118 119.936L181.117 119.937ZM178.277 108.217C178.004 111.021 175.806 111.971 173.04 111.718C170.578 111.494 169.495 108.129 169.495 108.129C172.012 107.352 174.669 107.099 177.294 107.386C175.911 105.885 174.089 104.828 172.07 104.355C172.07 104.355 172.98 103.815 175.898 104.081C178.269 104.297 178.418 106.774 178.277 108.217ZM152.787 25.6098C151.034 22.1516 152.507 17.9714 156.078 16.2729C159.648 14.5745 163.965 16.001 165.719 19.4592C167.472 22.9173 165.999 27.0976 162.429 28.796C158.858 30.4945 154.541 29.068 152.787 25.6098ZM147.529 33.1357C147.077 32.7817 146.771 32.283 146.665 31.7296C146.56 31.1762 146.662 30.6045 146.954 30.1176C147.245 29.6308 147.707 29.2609 148.255 29.0745C148.803 28.8882 149.402 28.8977 149.944 29.1014C149.884 28.2036 149.528 27.3482 148.929 26.6614C148.329 25.9746 147.517 25.4927 146.612 25.2871C145.708 25.0814 144.759 25.1628 143.906 25.5192C143.054 25.8756 142.342 26.4881 141.876 27.2664C141.41 28.0446 141.215 28.9473 141.319 29.8412C141.423 30.7351 141.822 31.5728 142.455 32.2307C143.089 32.8885 143.924 33.3316 144.838 33.4946C145.751 33.6576 146.695 33.5317 147.529 33.1357ZM160.229 26.7107C159.807 26.3005 159.55 25.7575 159.506 25.1801C159.461 24.6027 159.632 24.029 159.986 23.5628C160.341 23.0965 160.856 22.7685 161.438 22.6382C162.021 22.5078 162.632 22.5837 163.162 22.8521C163.206 21.9285 162.941 21.0158 162.408 20.2488C161.875 19.4819 161.101 18.9013 160.201 18.5929C159.301 18.2844 158.322 18.2645 157.41 18.5359C156.497 18.8073 155.699 19.3558 155.133 20.1003C154.567 20.8448 154.263 21.7458 154.266 22.6704C154.269 23.595 154.579 24.4941 155.15 25.2349C155.722 25.9757 156.524 26.519 157.438 26.7845C158.353 27.05 159.331 27.0236 160.229 26.7093L160.229 26.7107ZM151.478 18.1599C152.76 20.6883 151.399 22.6114 148.906 23.7973C146.686 24.8531 143.945 22.5337 143.945 22.5337C145.671 20.5972 147.799 19.0352 150.191 17.9497C148.202 17.3715 146.078 17.3935 144.102 18.0129C144.102 18.0129 144.586 17.0918 147.216 15.8407C149.353 14.8232 150.818 16.8593 151.478 18.1599Z" stroke="#33F81E" stroke-linecap="round" stroke-linejoin="round"/>
</svg>
