<svg width="21" height="21" viewBox="0 0 21 21" fill="none" xmlns="http://www.w3.org/2000/svg">
<path d="M11.8158 18.375C6.74358 18.375 2.63166 14.2616 2.63166 9.18745C2.63166 4.11332 6.74353 0 11.8158 0C16.8881 0 21 4.11336 21 9.1875C21 14.2616 16.8881 18.375 11.8158 18.375ZM11.8158 2.62501C8.19277 2.62501 5.25572 5.56312 5.25572 9.1875C5.25572 12.8119 8.19277 15.75 11.8158 15.75C15.4389 15.75 18.3759 12.8119 18.3759 9.1875C18.3759 5.56312 15.4389 2.62501 11.8158 2.62501Z" fill="#33F81E"/>
<path d="M1.31963 21C0.970881 21.002 0.635694 20.865 0.388102 20.6193C-0.126391 20.1089 -0.129782 19.2779 0.380505 18.7632C0.383037 18.7607 0.38557 18.7581 0.388102 18.7556L5.3213 13.8206C5.85388 13.306 6.7027 13.3207 7.2172 13.8534C7.73169 14.3862 7.71699 15.2353 7.18441 15.75L2.25117 20.6193C2.00357 20.865 1.66839 21.002 1.31963 21Z" fill="#33F81E"/>
</svg>
