<svg width="17" height="16" viewBox="0 0 17 16" fill="none" xmlns="http://www.w3.org/2000/svg">
<path d="M4.5 8.39259C6.98528 8.39259 9 6.6149 9 4.422C9 2.22911 6.98528 0.451416 4.5 0.451416C2.01472 0.451416 0 2.22911 0 4.422C0 6.6149 2.01472 8.39259 4.5 8.39259Z" fill="white"/>
<path d="M15 2.6573H13.5V1.33377C13.5 1.09975 13.3946 0.875325 13.2071 0.709851C13.0196 0.544378 12.7652 0.451416 12.5 0.451416C12.2348 0.451416 11.9804 0.544378 11.7929 0.709851C11.6054 0.875325 11.5 1.09975 11.5 1.33377V2.6573H10C9.73478 2.6573 9.48043 2.75026 9.29289 2.91573C9.10536 3.08121 9 3.30564 9 3.53965C9 3.77367 9.10536 3.9981 9.29289 4.16357C9.48043 4.32904 9.73478 4.422 10 4.422H11.5V5.74553C11.5 5.97955 11.6054 6.20398 11.7929 6.36945C11.9804 6.53492 12.2348 6.62789 12.5 6.62789C12.7652 6.62789 13.0196 6.53492 13.2071 6.36945C13.3946 6.20398 13.5 5.97955 13.5 5.74553V4.422H15C15.2652 4.422 15.5196 4.32904 15.7071 4.16357C15.8946 3.9981 16 3.77367 16 3.53965C16 3.30564 15.8946 3.08121 15.7071 2.91573C15.5196 2.75026 15.2652 2.6573 15 2.6573Z" fill="white"/>
<path d="M11.17 8.39259H5.83C4.28436 8.39423 2.80255 8.93672 1.70961 9.90108C0.616678 10.8654 0.0018525 12.1729 0 13.5367V15.1073C0 15.2243 0.0526785 15.3365 0.146447 15.4193C0.240215 15.502 0.367392 15.5485 0.5 15.5485H16.5C16.6326 15.5485 16.7598 15.502 16.8536 15.4193C16.9473 15.3365 17 15.2243 17 15.1073V13.5367C16.9984 12.1728 16.3837 10.8652 15.2907 9.90082C14.1977 8.93641 12.7157 8.39399 11.17 8.39259Z" fill="white"/>
</svg>
