<svg width="372" height="216" viewBox="0 0 372 216" fill="none" xmlns="http://www.w3.org/2000/svg">
<path d="M43.4384 43.5197C32.2121 41.4067 24.4801 31.3797 25.5767 20.3557C26.6733 9.33172 36.2381 0.917725 47.674 0.917725C59.1099 0.917725 68.6748 9.33172 69.7714 20.3557C70.868 31.3797 63.136 41.4067 51.9097 43.5197M104.85 86.891C103.988 75.8471 111.931 65.9757 123.199 64.087C134.468 62.1983 145.375 68.9088 148.396 79.5902C151.418 90.2715 145.566 101.429 134.877 105.366C124.188 109.303 112.16 104.731 107.089 94.8034M142.528 42.3797C141.666 31.3358 149.609 21.4645 160.877 19.5757C172.146 17.687 183.052 24.3975 186.074 35.0789C189.096 45.7603 183.244 56.9173 172.555 60.8545C161.866 64.7917 149.837 60.2194 144.767 50.2921M266.439 77.3797C265.577 66.3358 273.519 56.4645 284.788 54.5757C296.056 52.687 306.963 59.3975 309.985 70.0789C313.006 80.7603 307.154 91.9173 296.465 95.8545C285.777 99.7917 273.748 95.2194 268.677 85.2921M321.166 150.38C320.304 139.336 328.246 129.464 339.515 127.576C350.783 125.687 361.69 132.398 364.712 143.079C367.733 153.76 361.881 164.917 351.193 168.855C340.504 172.792 328.475 168.219 323.404 158.292M172.473 161.38C171.611 150.336 179.554 140.464 190.822 138.576C202.091 136.687 212.997 143.398 216.019 154.079C219.041 164.76 213.189 175.917 202.5 179.855C191.811 183.792 179.782 179.219 174.712 169.292M219.762 106.309C226.611 97.4393 239.297 95.0598 249.069 100.812C258.841 106.565 262.503 118.566 257.527 128.538C252.552 138.51 240.567 143.189 229.841 139.349C219.114 135.509 213.156 124.404 216.076 113.696M3.12914 169.38C2.26704 158.336 10.2097 148.464 21.4781 146.576C32.7465 144.687 43.6533 151.398 46.6751 162.079C49.6969 172.76 43.8449 183.917 33.156 187.855C22.4671 191.792 10.4383 187.219 5.36759 177.292M1.06397 104.38C0.201865 93.3358 8.14452 83.4644 19.4129 81.5757C30.6813 79.687 41.5881 86.3975 44.6099 97.0789C47.6317 107.76 41.7797 118.917 31.0908 122.855C20.402 126.792 8.37313 122.219 3.30241 112.292M90.2093 8.91372C90.2093 8.91372 104.067 8.26373 107.608 11.1607C111.21 9.32773 116.46 8.67672 123.541 9.50572C123.541 9.50572 123.602 30.3157 123.541 33.6857C123.48 37.0557 119.512 41.4297 113.835 41.5637C108.158 41.6977 89.7209 41.5637 89.7209 41.5637M90.2093 8.91372L89.7209 41.5637M90.2093 8.91372L85.5689 12.1657L85.3634 37.5877L89.7209 41.5637M112.771 27.5487C114.216 28.1835 115.851 28.2826 117.366 27.8273C118.881 27.372 120.171 26.394 120.99 25.0788C121.81 23.7637 122.103 22.2028 121.813 20.6924C121.523 19.182 120.671 17.8272 119.418 16.885C118.165 15.9428 116.599 15.4787 115.016 15.5809C113.433 15.6831 111.944 16.3444 110.832 17.4393C109.719 18.5342 109.06 19.9866 108.98 21.5209C108.9 23.0551 109.404 24.5645 110.396 25.7627M114.477 9.31372C114.165 7.52256 113.217 5.8932 111.796 4.70702C110.376 3.52083 108.572 2.85229 106.697 2.81684C104.821 2.78139 102.992 3.38126 101.525 4.51285C100.057 5.64444 99.0442 7.23672 98.66 9.01472M110.989 29.7877C111.052 30.7976 110.962 31.811 110.723 32.7957M47.6131 68.1191C47.6131 68.1191 58.1743 59.4066 62.8058 59.6049C64.5011 56.023 68.2468 52.4019 74.3763 48.8688C74.3763 48.8688 87.5511 65.3086 89.6286 68.0128C91.7061 70.717 91.3234 76.5276 86.9131 79.9922C82.5029 83.4569 67.8214 94.258 67.8214 94.258M47.6131 68.1191L67.8214 94.258M47.6131 68.1191L45.9905 73.4391L61.8635 93.688L67.8214 94.258M77.2307 69.5254C78.7748 69.1733 80.1317 68.2846 81.044 67.0279C81.9563 65.7711 82.3606 64.2338 82.18 62.7075C81.9995 61.1813 81.2467 59.7723 80.0645 58.7479C78.8824 57.7236 77.3531 57.1551 75.7668 57.1503C74.1805 57.1456 72.6476 57.7049 71.4589 58.7221C70.2702 59.7394 69.5085 61.1438 69.3182 62.669C69.1279 64.1941 69.5222 65.7338 70.4265 66.996C71.3308 68.2582 72.682 69.1551 74.2238 69.5164M67.079 54.0791C65.7019 52.8457 63.9234 52.1166 62.0505 52.0179C60.1776 51.9192 58.3278 52.4569 56.8207 53.5383C55.3136 54.6197 54.2437 56.1768 53.7958 57.9408C53.3479 59.7047 53.5501 61.5648 54.3675 63.1997M77.232 72.3524C77.9187 73.1148 78.4869 73.9702 78.9184 74.8915M207.315 63.7816C207.315 63.7816 217.877 55.069 222.508 55.2673C224.203 51.6854 227.949 48.0643 234.079 44.5312C234.079 44.5312 247.253 60.971 249.331 63.6752C251.408 66.3794 251.026 72.19 246.615 75.6547C242.205 79.1193 227.524 89.9204 227.524 89.9204M207.315 63.7816L227.524 89.9204M207.315 63.7816L205.693 69.1015L221.566 89.3504L227.524 89.9204M236.933 65.1878C238.477 64.8357 239.834 63.947 240.746 62.6903C241.659 61.4335 242.063 59.8962 241.882 58.3699C241.702 56.8437 240.949 55.4347 239.767 54.4103C238.585 53.386 237.055 52.8175 235.469 52.8127C233.883 52.808 232.35 53.3673 231.161 54.3845C229.972 55.4018 229.211 56.8062 229.02 58.3314C228.83 59.8565 229.224 61.3963 230.129 62.6585C231.033 63.9206 232.384 64.8175 233.926 65.1788M226.781 49.7415C225.404 48.5081 223.626 47.7791 221.753 47.6803C219.88 47.5816 218.03 48.1193 216.523 49.2007C215.016 50.2821 213.946 51.8392 213.498 53.6032C213.05 55.3671 213.252 57.2272 214.07 58.8621M236.934 68.0148C237.621 68.7772 238.189 69.6326 238.621 70.554M251.452 8.15481C251.452 8.15481 265.024 10.94 267.689 14.6142C271.653 13.7288 276.901 14.3925 283.532 16.9388C283.532 16.9388 278.125 37.0792 277.181 40.3233C276.237 43.5675 271.25 46.82 265.724 45.551C260.199 44.282 242.404 39.6104 242.404 39.6104M251.452 8.15481L242.404 39.6104M251.452 8.15481L246.11 10.1566L239.234 34.6917L242.404 39.6104M268.377 31.735C269.607 32.7048 271.162 33.2034 272.747 33.1363C274.332 33.0693 275.836 32.4412 276.975 31.3712C278.113 30.3012 278.806 28.8638 278.922 27.3317C279.039 25.7997 278.571 24.2795 277.606 23.0596C276.642 21.8397 275.249 21.005 273.692 20.7139C272.134 20.4228 270.52 20.6955 269.157 21.4803C267.793 22.2651 266.774 23.5073 266.294 24.9714C265.813 26.4354 265.904 28.0194 266.549 29.4227M274.817 14.5201C274.985 12.711 274.496 10.9016 273.434 9.40447C272.371 7.90734 270.803 6.81645 268.998 6.32017C267.194 5.82388 265.267 5.95337 263.551 6.68627C261.835 7.41917 260.437 8.70946 259.598 10.3343M266.065 33.4613C265.861 34.4534 265.508 35.4113 265.018 36.3047M278.299 115.155C278.299 115.155 291.872 117.94 294.536 121.614C298.501 120.729 303.748 121.392 310.379 123.939C310.379 123.939 304.972 144.079 304.028 147.323C303.084 150.567 298.097 153.82 292.572 152.551C287.046 151.282 269.251 146.61 269.251 146.61M278.299 115.155L269.251 146.61M278.299 115.155L272.957 117.157L266.081 141.692L269.251 146.61M295.224 138.735C296.455 139.705 298.01 140.203 299.594 140.136C301.179 140.069 302.683 139.441 303.822 138.371C304.96 137.301 305.653 135.864 305.77 134.332C305.886 132.8 305.418 131.279 304.454 130.06C303.489 128.84 302.096 128.005 300.539 127.714C298.981 127.423 297.368 127.696 296.004 128.48C294.64 129.265 293.621 130.507 293.141 131.971C292.66 133.435 292.751 135.019 293.397 136.423M301.664 121.52C301.832 119.711 301.343 117.902 300.281 116.404C299.219 114.907 297.65 113.816 295.846 113.32C294.041 112.824 292.115 112.953 290.398 113.686C288.682 114.419 287.284 115.709 286.446 117.334M292.913 140.461C292.708 141.453 292.355 142.411 291.865 143.305M336.059 20.1548C336.059 20.1548 322.486 22.94 319.822 26.6142C315.857 25.7288 310.61 26.3925 303.979 28.9388C303.979 28.9388 309.386 49.0792 310.33 52.3233C311.274 55.5675 316.261 58.82 321.786 57.551C327.312 56.282 345.107 51.6104 345.107 51.6104M336.059 20.1548L345.107 51.6104M336.059 20.1548L341.401 22.1566L348.277 46.6917L345.107 51.6104M319.134 43.735C317.903 44.7048 316.348 45.2034 314.764 45.1363C313.179 45.0693 311.674 44.4412 310.536 43.3712C309.398 42.3012 308.705 40.8638 308.588 39.3317C308.472 37.7997 308.94 36.2795 309.904 35.0596C310.869 33.8397 312.262 33.005 313.819 32.7139C315.377 32.4228 316.99 32.6955 318.354 33.4803C319.718 34.2651 320.737 35.5073 321.217 36.9714C321.698 38.4354 321.607 40.0194 320.961 41.4227M312.694 26.5201C312.526 24.711 313.015 22.9016 314.077 21.4045C315.139 19.9073 316.708 18.8164 318.512 18.3202C320.317 17.8239 322.243 17.9534 323.96 18.6863C325.676 19.4192 327.074 20.7095 327.912 22.3343M321.445 45.4613C321.65 46.4534 322.003 47.4113 322.493 48.3047M316.439 177.155C316.439 177.155 302.867 179.94 300.203 183.614C296.238 182.729 290.99 183.392 284.36 185.939C284.36 185.939 289.767 206.079 290.711 209.323C291.655 212.567 296.642 215.82 302.167 214.551C307.693 213.282 325.488 208.61 325.488 208.61M316.439 177.155L325.488 208.61M316.439 177.155L321.782 179.157L328.658 203.692L325.488 208.61M299.515 200.735C298.284 201.705 296.729 202.203 295.144 202.136C293.56 202.069 292.055 201.441 290.917 200.371C289.779 199.301 289.086 197.864 288.969 196.332C288.853 194.8 289.321 193.279 290.285 192.06C291.249 190.84 292.642 190.005 294.2 189.714C295.758 189.423 297.371 189.696 298.735 190.48C300.099 191.265 301.117 192.507 301.598 193.971C302.079 195.435 301.988 197.019 301.342 198.423M293.075 183.52C292.907 181.711 293.396 179.902 294.458 178.404C295.52 176.907 297.089 175.816 298.893 175.32C300.698 174.824 302.624 174.953 304.34 175.686C306.057 176.419 307.455 177.709 308.293 179.334M301.826 202.461C302.031 203.453 302.384 204.411 302.874 205.305M238.028 168.155C238.028 168.155 251.601 170.94 254.265 174.614C258.23 173.729 263.478 174.392 270.108 176.939C270.108 176.939 264.701 197.079 263.757 200.323C262.813 203.567 257.826 206.82 252.301 205.551C246.775 204.282 228.98 199.61 228.98 199.61M238.028 168.155L228.98 199.61M238.028 168.155L232.687 170.157L225.81 194.692L228.98 199.61M254.953 191.735C256.184 192.705 257.739 193.203 259.324 193.136C260.908 193.069 262.413 192.441 263.551 191.371C264.689 190.301 265.382 188.864 265.499 187.332C265.615 185.8 265.147 184.279 264.183 183.06C263.219 181.84 261.826 181.005 260.268 180.714C258.71 180.423 257.097 180.696 255.733 181.48C254.369 182.265 253.351 183.507 252.87 184.971C252.389 186.435 252.48 188.019 253.126 189.423M261.393 174.52C261.562 172.711 261.072 170.902 260.01 169.404C258.948 167.907 257.379 166.816 255.575 166.32C253.77 165.824 251.844 165.953 250.128 166.686C248.411 167.419 247.013 168.709 246.175 170.334M252.642 193.461C252.437 194.453 252.084 195.411 251.594 196.305M327.772 90.4167C327.772 90.4167 338.342 81.7138 342.973 81.9164C344.672 78.336 348.421 74.7184 354.554 71.191C354.554 71.191 367.712 87.6429 369.787 90.349C371.862 93.055 371.474 98.8653 367.06 102.326C362.646 105.787 347.954 116.574 347.954 116.574M327.772 90.4167L347.954 116.574M327.772 90.4167L326.144 95.7351L341.997 115.999L347.954 116.574M357.388 91.8501C358.932 91.4995 360.29 90.612 361.204 89.3561C362.117 88.1002 362.523 86.5633 362.344 85.0368C362.165 83.5104 361.414 82.1008 360.232 81.0753C359.051 80.0498 357.522 79.4799 355.936 79.4737C354.35 79.4675 352.816 80.0254 351.627 81.0416C350.437 82.0578 349.674 83.4615 349.482 84.9865C349.29 86.5114 349.683 88.0515 350.586 89.3145C351.489 90.5776 352.84 91.4756 354.381 91.8384M347.251 76.3945C345.876 75.1598 344.098 74.4292 342.225 74.3287C340.352 74.2283 338.502 74.7643 336.994 75.8443C335.485 76.9243 334.414 78.4804 333.964 80.244C333.515 82.0075 333.715 83.8677 334.531 85.5034M357.386 94.6772C358.072 95.4402 358.64 96.2961 359.07 97.2179M80.1113 118.667C80.1113 118.667 85.906 130.875 84.4526 135.138C87.5528 137.69 90.1358 142.163 91.9847 148.835C91.9847 148.835 72.072 156.657 68.8209 157.86C65.5698 159.063 59.8986 157.13 57.6514 152.079C55.4041 147.029 48.6513 130.414 48.6513 130.414M80.1113 118.667L48.6513 130.414M80.1113 118.667L75.2641 115.711L50.8338 125.015L48.6513 130.414M70.6804 145.893C70.6115 147.428 71.1267 148.934 72.1283 150.125C73.1299 151.316 74.5482 152.11 76.114 152.356C77.6799 152.601 79.2845 152.282 80.6232 151.458C81.9619 150.634 82.9418 149.362 83.3767 147.885C83.8117 146.408 83.6716 144.827 82.983 143.443C82.2944 142.059 81.1051 140.968 79.641 140.377C78.1768 139.786 76.5395 139.736 75.0398 140.237C73.54 140.737 72.2822 141.754 71.5049 143.093M88.7856 140.62C90.385 139.671 91.5919 138.211 92.1981 136.492C92.8042 134.773 92.7715 132.903 92.1055 131.204C91.4395 129.506 90.1821 128.087 88.5504 127.191C86.9188 126.295 85.0153 125.979 83.1686 126.297M67.8703 145.127C66.9263 145.561 65.922 145.858 64.8893 146.011M68.2988 179.612C68.2988 179.612 82.1254 178.508 85.7664 181.287C89.3019 179.337 94.5259 178.515 101.632 179.111C101.632 179.111 102.42 199.907 102.477 203.277C102.534 206.647 98.7209 211.149 93.0517 211.469C87.3824 211.789 68.9515 212.259 68.9515 212.259M68.2988 179.612L68.9515 212.259M68.2988 179.612L63.7746 183.014L64.4575 208.428L68.9515 212.259M91.499 197.497C92.9649 198.084 94.6023 198.129 96.1006 197.625C97.5988 197.12 98.8537 196.1 99.6271 194.759C100.4 193.418 100.638 191.848 100.296 190.348C99.9537 188.848 99.0546 187.522 97.7695 186.621C96.4844 185.721 94.9026 185.308 93.3243 185.462C91.746 185.616 90.281 186.326 89.2072 187.457C88.1334 188.587 87.5255 190.061 87.4989 191.597C87.4724 193.133 88.0289 194.625 89.063 195.79M92.5667 179.216C92.1921 177.436 91.1874 175.839 89.7262 174.7C88.265 173.561 86.439 172.952 84.5635 172.978C82.688 173.004 80.8807 173.664 79.4538 174.843C78.0269 176.022 77.0699 177.646 76.7481 179.436M89.796 199.793C89.8941 200.8 89.8398 201.816 89.6348 202.808M111.33 135.823C111.33 135.823 125.189 136.434 128.435 139.64C132.198 138.143 137.488 137.971 144.458 139.44C144.458 139.44 142.503 160.164 142.116 163.513C141.729 166.863 137.354 170.857 131.689 170.475C126.024 170.093 107.682 168.284 107.682 168.284M111.33 135.823L107.682 168.284M111.33 135.823L106.395 138.639L103.728 163.93L107.682 168.284M131.988 156.425C133.365 157.188 134.983 157.435 136.535 157.12C138.088 156.804 139.466 155.948 140.41 154.713C141.353 153.478 141.796 151.95 141.654 150.42C141.512 148.89 140.794 147.464 139.638 146.412C138.482 145.36 136.968 144.756 135.382 144.714C133.796 144.672 132.25 145.195 131.036 146.184C129.822 147.173 129.025 148.559 128.797 150.079C128.568 151.6 128.924 153.148 129.796 154.431M135.452 138.425C135.315 136.614 134.529 134.905 133.229 133.595C131.93 132.285 130.199 131.456 128.335 131.25C126.472 131.045 124.592 131.476 123.022 132.469C121.451 133.462 120.288 134.956 119.734 136.691M129.997 158.492C129.961 159.503 129.774 160.504 129.44 161.463M190.835 85.8227C190.835 85.8227 176.976 86.4343 173.731 89.6403C169.967 88.1425 164.678 87.9713 157.708 89.4399C157.708 89.4399 159.663 110.164 160.05 113.513C160.437 116.863 164.811 120.857 170.476 120.475C176.141 120.093 194.484 118.284 194.484 118.284M190.835 85.8227L194.484 118.284M190.835 85.8227L195.77 88.6388L198.437 113.93L194.484 118.284M170.178 106.425C168.801 107.188 167.183 107.435 165.63 107.12C164.078 106.804 162.699 105.948 161.756 104.713C160.812 103.478 160.369 101.95 160.512 100.42C160.654 98.8902 161.371 97.464 162.527 96.4121C163.683 95.3602 165.198 94.756 166.784 94.7139C168.369 94.6718 169.916 95.1949 171.13 96.184C172.344 97.173 173.14 98.5591 173.369 100.079C173.597 101.6 173.242 103.148 172.369 104.431M166.713 88.4254C166.851 86.6137 167.637 84.9054 168.936 83.5954C170.236 82.2854 171.967 81.456 173.83 81.2504C175.694 81.0447 177.573 81.4758 179.144 82.4691C180.714 83.4624 181.877 84.9556 182.432 86.6909M172.169 108.492C172.204 109.503 172.392 110.504 172.726 111.463M174.043 185.485C174.043 185.485 161.9 178.986 157.403 180.074C155.004 176.891 150.589 174.066 143.855 171.786C143.855 171.786 134.327 190.439 132.848 193.49C131.369 196.541 132.939 202.161 137.974 204.705C143.009 207.249 159.619 215 159.619 215M174.043 185.485L159.619 215M174.043 185.485L176.728 190.385L165.34 213.292L159.619 215M145.309 192.579C143.723 192.532 142.21 191.923 141.058 190.868C139.905 189.813 139.193 188.384 139.056 186.854C138.918 185.323 139.366 183.797 140.314 182.565C141.261 181.333 142.643 180.481 144.197 180.17C145.75 179.859 147.367 180.112 148.742 180.879C150.116 181.646 151.151 182.876 151.651 184.333C152.152 185.791 152.082 187.376 151.456 188.788C150.829 190.199 149.69 191.339 148.253 191.99M152.078 175.484C153.174 174.009 154.767 172.952 156.582 172.493C158.397 172.035 160.32 172.205 162.019 172.974C163.719 173.743 165.088 175.062 165.89 176.704C166.691 178.346 166.876 180.208 166.412 181.968M145.889 195.35C145.373 196.23 144.992 197.178 144.759 198.164M56.5532 22.2187C56.5532 26.9684 52.5774 30.8187 47.673 30.8187C42.7686 30.8187 38.7927 26.9684 38.7927 22.2187C38.7927 17.4691 42.7686 13.6187 47.673 13.6187C52.5774 13.6187 56.5532 17.4691 56.5532 22.2187ZM129.529 93.5121C124.799 94.7671 119.914 92.071 118.618 87.4902C117.322 82.9094 120.106 78.1784 124.836 76.9234C129.566 75.6684 134.451 78.3645 135.747 82.9453C137.043 87.5261 134.259 92.257 129.529 93.5121ZM167.207 49.0008C162.477 50.2558 157.592 47.5597 156.296 42.9789C155 38.3981 157.784 33.6672 162.514 32.4121C167.244 31.1571 172.129 33.8532 173.425 38.434C174.721 43.0148 171.937 47.7457 167.207 49.0008ZM291.117 84.0008C286.387 85.2558 281.502 82.5597 280.206 77.9789C278.91 73.3981 281.694 68.6672 286.424 67.4121C291.155 66.1571 296.04 68.8532 297.336 73.434C298.631 78.0148 295.848 82.7457 291.117 84.0008ZM345.845 157.001C341.114 158.256 336.229 155.56 334.933 150.979C333.637 146.398 336.421 141.667 341.152 140.412C345.882 139.157 350.767 141.853 352.063 146.434C353.359 151.015 350.575 155.746 345.845 157.001ZM197.152 168.001C192.422 169.256 187.537 166.56 186.241 161.979C184.945 157.398 187.729 152.667 192.459 151.412C197.189 150.157 202.074 152.853 203.37 157.434C204.666 162.015 201.882 166.746 197.152 168.001ZM233.86 127.013C229.444 124.946 227.594 119.804 229.728 115.527C231.862 111.251 237.171 109.459 241.587 111.526C246.003 113.592 247.853 118.734 245.719 123.011C243.585 127.287 238.276 129.079 233.86 127.013ZM27.8079 176.001C23.0778 177.256 18.1928 174.56 16.8968 169.979C15.6009 165.398 18.3848 160.667 23.115 159.412C27.8451 158.157 32.7301 160.853 34.0261 165.434C35.322 170.015 32.538 174.746 27.8079 176.001ZM25.7428 111.001C21.0127 112.256 16.1276 109.56 14.8317 104.979C13.5357 100.398 16.3197 95.6672 21.0498 94.4121C25.7799 93.1571 30.665 95.8532 31.9609 100.434C33.2568 105.015 30.4729 109.746 25.7428 111.001ZM107.055 22.3907C107.055 26.2435 103.83 29.3667 99.8516 29.3667C95.8733 29.3667 92.6483 26.2435 92.6483 22.3907C92.6483 18.538 95.8733 15.4147 99.8516 15.4147C103.83 15.4147 107.055 18.538 107.055 22.3907ZM115.201 17.8807C115.445 18.3913 115.493 18.9697 115.336 19.5114C115.178 20.0531 114.826 20.5226 114.343 20.8352C113.86 21.1477 113.277 21.2827 112.7 21.2159C112.123 21.1491 111.59 20.8848 111.197 20.4707C110.841 21.3019 110.772 22.2217 110.997 23.0943C111.223 23.9669 111.733 24.7461 112.451 25.3168C113.169 25.8875 114.057 26.2194 114.985 26.2637C115.913 26.3079 116.831 26.062 117.603 25.5624C118.376 25.0628 118.962 24.3358 119.275 23.4889C119.588 22.642 119.612 21.72 119.343 20.8591C119.074 19.9981 118.526 19.2438 117.78 18.7075C117.034 18.1712 116.13 17.8813 115.201 17.8807ZM100.877 18.2257C101.069 18.7741 101.052 19.3708 100.829 19.9081C100.606 20.4453 100.192 20.8875 99.6615 21.1547C99.1311 21.4219 98.5195 21.4963 97.9373 21.3646C97.3551 21.233 96.8408 20.9038 96.4875 20.4367C96.028 21.2472 95.8499 22.1793 95.9794 23.0953C96.1089 24.0114 96.5391 24.8628 97.2065 25.5239C97.8739 26.185 98.7432 26.6207 99.6859 26.7667C100.629 26.9127 101.595 26.7613 102.442 26.3347C103.289 25.9082 103.972 25.2291 104.39 24.3979C104.808 23.5666 104.939 22.6272 104.763 21.7184C104.588 20.8096 104.115 19.9795 103.415 19.3508C102.715 18.722 101.825 18.328 100.876 18.2267L100.877 18.2257ZM104.839 29.6367C104.839 26.8197 106.936 25.6747 109.714 25.6747C112.187 25.6747 113.591 28.9267 113.591 28.9267C111.161 29.9282 108.539 30.4216 105.898 30.3747C107.421 31.7431 109.337 32.6301 111.393 32.9177C111.393 32.9177 110.539 33.5377 107.608 33.5377C105.227 33.5387 104.839 31.0857 104.839 29.6367ZM69.4513 68.8235C71.8815 71.8738 71.2983 76.2545 68.1485 78.608C64.9988 80.9615 60.4754 80.3967 58.0452 77.3464C55.6149 74.2961 56.1982 69.9154 59.3479 67.5618C62.4976 65.2083 67.0211 65.7731 69.4513 68.8235ZM73.0559 60.4336C73.5714 60.6934 73.974 61.123 74.1912 61.6449C74.4084 62.1669 74.4259 62.7468 74.2404 63.2801C74.055 63.8135 73.6789 64.2651 73.1799 64.5535C72.681 64.8419 72.092 64.9482 71.5193 64.8531C71.7623 65.7214 72.2872 66.4909 73.0164 67.0482C73.7456 67.6055 74.6405 67.9209 75.569 67.9479C76.4975 67.9749 77.4104 67.7121 78.1728 67.1983C78.9353 66.6844 79.5069 65.9467 79.8033 65.0942C80.0998 64.2416 80.1053 63.3194 79.8191 62.4635C79.5328 61.6077 78.9701 60.8637 78.2138 60.3413C77.4575 59.819 76.5479 59.5459 75.6191 59.5625C74.6904 59.5791 73.7918 59.8845 73.0559 60.4336ZM61.9328 69.1808C62.4307 69.5013 62.7937 69.9839 62.9561 70.5411C63.1184 71.0983 63.0695 71.6935 62.8181 72.2188C62.5666 72.7441 62.1294 73.1649 61.5854 73.4051C61.0413 73.6452 60.4265 73.6889 59.8522 73.5281C59.9997 74.4416 60.4466 75.2849 61.1269 75.9336C61.8072 76.5822 62.6849 77.0018 63.6304 77.1304C64.5758 77.259 65.5389 77.0897 66.3773 76.6476C67.2158 76.2054 67.8853 75.5139 68.2868 74.6751C68.6884 73.8363 68.8008 72.8946 68.6074 71.9892C68.414 71.0838 67.9251 70.2626 67.2128 69.6469C66.5006 69.0312 65.6028 68.6536 64.652 68.57C63.7012 68.4863 62.7478 68.7009 61.9326 69.1822L61.9328 69.1808ZM72.2675 75.8712C70.4906 73.641 71.4288 71.4937 73.6279 69.8505C75.5859 68.3874 78.749 70.1313 78.749 70.1313C77.4564 72.3621 75.6922 74.3035 73.5718 75.8288C75.6402 76.0115 77.717 75.58 79.5259 74.5917C79.5259 74.5917 79.2409 75.5877 76.9208 77.3214C75.0362 78.7309 73.1815 77.0185 72.2675 75.8712ZM229.153 64.4859C231.584 67.5362 231 71.9169 227.851 74.2704C224.701 76.624 220.178 76.0591 217.747 73.0088C215.317 69.9585 215.9 65.5778 219.05 63.2242C222.2 60.8707 226.723 61.4356 229.153 64.4859ZM232.758 56.096C233.274 56.3558 233.676 56.7854 233.893 57.3074C234.111 57.8293 234.128 58.4092 233.943 58.9426C233.757 59.4759 233.381 59.9275 232.882 60.2159C232.383 60.5043 231.794 60.6106 231.222 60.5155C231.465 61.3838 231.989 62.1534 232.719 62.7106C233.448 63.2679 234.343 63.5833 235.271 63.6103C236.2 63.6374 237.113 63.3745 237.875 62.8607C238.638 62.3468 239.209 61.6092 239.506 60.7566C239.802 59.904 239.808 58.9818 239.521 58.1259C239.235 57.2701 238.672 56.5261 237.916 56.0037C237.16 55.4814 236.25 55.2083 235.321 55.2249C234.393 55.2416 233.494 55.5469 232.758 56.096ZM221.635 64.8432C222.133 65.1637 222.496 65.6463 222.658 66.2035C222.821 66.7608 222.772 67.3559 222.52 67.8812C222.269 68.4065 221.832 68.8273 221.288 69.0675C220.744 69.3076 220.129 69.3513 219.554 69.1905C219.702 70.104 220.149 70.9473 220.829 71.596C221.509 72.2447 222.387 72.6642 223.333 72.7928C224.278 72.9214 225.241 72.7521 226.08 72.31C226.918 71.8678 227.587 71.1763 227.989 70.3375C228.391 69.4987 228.503 68.557 228.31 67.6516C228.116 66.7462 227.627 65.925 226.915 65.3093C226.203 64.6936 225.305 64.316 224.354 64.2324C223.403 64.1487 222.45 64.3633 221.635 64.8446L221.635 64.8432ZM231.97 71.5337C230.193 69.3034 231.131 67.1562 233.33 65.5129C235.288 64.0499 238.451 65.7938 238.451 65.7938C237.159 68.0245 235.394 69.966 233.274 71.4912C235.342 71.6739 237.419 71.2424 239.228 70.2541C239.228 70.2541 238.943 71.2502 236.623 72.9838C234.738 74.3933 232.884 72.6809 231.97 71.5337ZM264.204 25.3384C263.192 29.0644 259.252 31.2905 255.405 30.3104C251.557 29.3303 249.259 25.5153 250.271 21.7893C251.283 18.0633 255.222 15.8373 259.07 16.8174C262.917 17.7974 265.216 21.6124 264.204 25.3384ZM273.266 22.9836C273.368 23.5376 273.263 24.1087 272.968 24.5939C272.674 25.079 272.21 25.4463 271.661 25.6296C271.111 25.8128 270.512 25.7998 269.972 25.5931C269.431 25.3863 268.985 24.9993 268.713 24.5019C268.151 25.2183 267.842 26.0906 267.831 26.9901C267.821 27.8897 268.109 28.7687 268.653 29.4975C269.198 30.2263 269.97 30.7663 270.856 31.0376C271.741 31.3089 272.694 31.2973 273.572 31.0044C274.45 30.7115 275.208 30.1529 275.733 29.411C276.259 28.6691 276.524 27.7833 276.49 26.8843C276.455 25.9853 276.124 25.1208 275.543 24.4185C274.963 23.7161 274.164 23.213 273.266 22.9836ZM259.323 19.7885C259.365 20.3661 259.191 20.939 258.835 21.4037C258.478 21.8683 257.961 22.194 257.378 22.3217C256.795 22.4494 256.184 22.3707 255.655 22.1C255.127 21.8292 254.716 21.3841 254.497 20.8454C253.84 21.516 253.423 22.3736 253.307 23.2914C253.192 24.2092 253.384 25.1386 253.856 25.9424C254.328 26.7461 255.054 27.3817 255.928 27.7551C256.801 28.1286 257.775 28.2201 258.706 28.0163C259.638 27.8124 260.476 27.3239 261.099 26.623C261.722 25.9221 262.095 25.0458 262.164 24.1237C262.233 23.2015 261.994 22.2823 261.482 21.5018C260.97 20.7213 260.213 20.1209 259.322 19.7892L259.323 19.7885ZM260.157 31.8002C260.897 29.0758 263.226 28.4852 265.912 29.1694C268.304 29.7787 268.808 33.2697 268.808 33.2697C266.194 33.6394 263.53 33.4708 260.988 32.7749C262.101 34.4732 263.721 35.8032 265.634 36.5878C265.634 36.5878 264.645 36.977 261.811 36.2551C259.508 35.6695 259.777 33.2015 260.157 31.8002ZM291.051 132.338C290.039 136.064 286.099 138.29 282.252 137.31C278.405 136.33 276.106 132.515 277.118 128.789C278.13 125.063 282.069 122.837 285.917 123.817C289.764 124.797 292.063 128.612 291.051 132.338ZM300.114 129.984C300.216 130.538 300.11 131.109 299.816 131.594C299.521 132.079 299.057 132.446 298.508 132.63C297.959 132.813 297.36 132.8 296.819 132.593C296.279 132.386 295.832 131.999 295.561 131.502C294.999 132.218 294.69 133.091 294.679 133.99C294.668 134.89 294.956 135.769 295.501 136.498C296.045 137.226 296.817 137.766 297.703 138.038C298.588 138.309 299.541 138.297 300.419 138.004C301.297 137.712 302.055 137.153 302.58 136.411C303.106 135.669 303.371 134.783 303.337 133.884C303.303 132.985 302.971 132.121 302.39 131.418C301.81 130.716 301.012 130.213 300.114 129.984ZM286.17 126.788C286.212 127.366 286.039 127.939 285.682 128.404C285.325 128.868 284.808 129.194 284.225 129.322C283.642 129.449 283.031 129.371 282.503 129.1C281.974 128.829 281.563 128.384 281.344 127.845C280.687 128.516 280.27 129.374 280.154 130.291C280.039 131.209 280.232 132.139 280.703 132.942C281.175 133.746 281.901 134.382 282.775 134.755C283.648 135.129 284.622 135.22 285.554 135.016C286.485 134.812 287.324 134.324 287.946 133.623C288.569 132.922 288.942 132.046 289.011 131.124C289.08 130.202 288.841 129.282 288.329 128.502C287.817 127.721 287.06 127.121 286.169 126.789L286.17 126.788ZM287.004 138.8C287.744 136.076 290.073 135.485 292.76 136.169C295.151 136.779 295.655 140.27 295.655 140.27C293.042 140.639 290.377 140.471 287.835 139.775C288.948 141.473 290.568 142.803 292.481 143.588C292.481 143.588 291.492 143.977 288.658 143.255C286.355 142.669 286.624 140.202 287.004 138.8ZM323.307 37.3384C324.319 41.0644 328.259 43.2905 332.106 42.3104C335.953 41.3303 338.252 37.5153 337.24 33.7893C336.228 30.0633 332.289 27.8373 328.441 28.8174C324.594 29.7974 322.295 33.6124 323.307 37.3384ZM314.244 34.9836C314.142 35.5376 314.248 36.1087 314.542 36.5939C314.837 37.079 315.301 37.4463 315.85 37.6296C316.399 37.8128 316.998 37.7998 317.539 37.5931C318.079 37.3863 318.526 36.9993 318.797 36.5019C319.359 37.2183 319.668 38.0906 319.679 38.9901C319.69 39.8897 319.402 40.7687 318.857 41.4975C318.313 42.2263 317.541 42.7663 316.655 43.0376C315.77 43.3089 314.817 43.2973 313.939 43.0044C313.061 42.7115 312.303 42.1529 311.777 41.411C311.252 40.6691 310.987 39.7833 311.021 38.8843C311.055 37.9853 311.387 37.1208 311.968 36.4185C312.548 35.7161 313.346 35.213 314.244 34.9836ZM328.188 31.7885C328.146 32.3661 328.319 32.939 328.676 33.4037C329.033 33.8683 329.55 34.194 330.133 34.3217C330.716 34.4494 331.327 34.3707 331.855 34.0999C332.384 33.8292 332.795 33.3841 333.014 32.8454C333.671 33.516 334.088 34.3736 334.204 35.2914C334.319 36.2092 334.126 37.1386 333.655 37.9424C333.183 38.7461 332.457 39.3817 331.583 39.7551C330.71 40.1286 329.736 40.2201 328.804 40.0163C327.873 39.8124 327.034 39.3239 326.412 38.623C325.789 37.9221 325.416 37.0458 325.347 36.1237C325.278 35.2015 325.517 34.2823 326.029 33.5018C326.541 32.7213 327.298 32.1209 328.189 31.7892L328.188 31.7885ZM327.354 43.8002C326.614 41.0758 324.285 40.4852 321.598 41.1694C319.207 41.7787 318.703 45.2697 318.703 45.2697C321.316 45.6394 323.981 45.4708 326.523 44.7749C325.41 46.4732 323.79 47.8032 321.877 48.5878C321.877 48.5878 322.866 48.977 325.7 48.2551C328.003 47.6695 327.734 45.2015 327.354 43.8002ZM303.688 194.338C304.7 198.064 308.639 200.29 312.487 199.31C316.334 198.33 318.633 194.515 317.621 190.789C316.609 187.063 312.669 184.837 308.822 185.817C304.975 186.797 302.676 190.612 303.688 194.338ZM294.625 191.984C294.523 192.538 294.629 193.109 294.923 193.594C295.218 194.079 295.682 194.446 296.231 194.63C296.78 194.813 297.379 194.8 297.92 194.593C298.46 194.386 298.906 193.999 299.178 193.502C299.74 194.218 300.049 195.091 300.06 195.99C300.071 196.89 299.783 197.769 299.238 198.498C298.694 199.226 297.922 199.766 297.036 200.038C296.15 200.309 295.198 200.297 294.32 200.004C293.442 199.712 292.684 199.153 292.158 198.411C291.633 197.669 291.368 196.783 291.402 195.884C291.436 194.985 291.768 194.121 292.349 193.418C292.929 192.716 293.727 192.213 294.625 191.984ZM308.569 188.788C308.527 189.366 308.7 189.939 309.057 190.404C309.414 190.868 309.93 191.194 310.514 191.322C311.097 191.449 311.708 191.371 312.236 191.1C312.765 190.829 313.176 190.384 313.395 189.845C314.052 190.516 314.469 191.374 314.584 192.291C314.7 193.209 314.507 194.139 314.036 194.942C313.564 195.746 312.837 196.382 311.964 196.755C311.091 197.129 310.117 197.22 309.185 197.016C308.254 196.812 307.415 196.324 306.793 195.623C306.17 194.922 305.797 194.046 305.728 193.124C305.659 192.202 305.898 191.282 306.41 190.502C306.921 189.721 307.679 189.121 308.57 188.789L308.569 188.788ZM307.734 200.8C306.994 198.076 304.666 197.485 301.979 198.169C299.588 198.779 299.084 202.27 299.084 202.27C301.697 202.639 304.362 202.471 306.904 201.775C305.791 203.473 304.17 204.803 302.258 205.588C302.258 205.588 303.247 205.977 306.081 205.255C308.384 204.669 308.115 202.202 307.734 200.8ZM250.78 185.338C249.768 189.064 245.829 191.29 241.981 190.31C238.134 189.33 235.835 185.515 236.847 181.789C237.859 178.063 241.799 175.837 245.646 176.817C249.493 177.797 251.792 181.612 250.78 185.338ZM259.843 182.984C259.945 183.538 259.839 184.109 259.545 184.594C259.25 185.079 258.787 185.446 258.237 185.63C257.688 185.813 257.089 185.8 256.548 185.593C256.008 185.386 255.561 184.999 255.29 184.502C254.728 185.218 254.419 186.091 254.408 186.99C254.397 187.89 254.685 188.769 255.23 189.498C255.774 190.226 256.546 190.766 257.432 191.038C258.318 191.309 259.27 191.297 260.148 191.004C261.026 190.712 261.784 190.153 262.31 189.411C262.835 188.669 263.1 187.783 263.066 186.884C263.032 185.985 262.7 185.121 262.119 184.418C261.539 183.716 260.741 183.213 259.843 182.984ZM245.899 179.788C245.941 180.366 245.768 180.939 245.411 181.404C245.054 181.868 244.538 182.194 243.954 182.322C243.371 182.449 242.76 182.371 242.232 182.1C241.703 181.829 241.292 181.384 241.073 180.845C240.416 181.516 239.999 182.374 239.884 183.291C239.768 184.209 239.961 185.139 240.432 185.942C240.904 186.746 241.631 187.382 242.504 187.755C243.377 188.129 244.351 188.22 245.283 188.016C246.214 187.812 247.053 187.324 247.675 186.623C248.298 185.922 248.671 185.046 248.74 184.124C248.809 183.202 248.57 182.282 248.058 181.502C247.547 180.721 246.789 180.121 245.898 179.789L245.899 179.788ZM246.734 191.8C247.474 189.076 249.802 188.485 252.489 189.169C254.88 189.779 255.384 193.27 255.384 193.27C252.771 193.639 250.106 193.471 247.564 192.775C248.677 194.473 250.298 195.803 252.21 196.588C252.21 196.588 251.221 196.977 248.387 196.255C246.084 195.669 246.353 193.202 246.734 191.8ZM349.609 91.1411C352.036 94.1936 351.449 98.5738 348.297 100.924C345.145 103.275 340.622 102.706 338.195 99.6535C335.767 96.6009 336.355 92.2208 339.507 89.8701C342.659 87.5195 347.182 88.0885 349.609 91.1411ZM353.222 82.7545C353.737 83.0148 354.14 83.4447 354.356 83.9669C354.573 84.4891 354.59 85.069 354.404 85.6022C354.218 86.1353 353.841 86.5866 353.342 86.8745C352.843 87.1625 352.254 87.2682 351.681 87.1726C351.923 88.0411 352.447 88.8112 353.176 89.3691C353.905 89.927 354.799 90.2433 355.728 90.2712C356.656 90.299 357.569 90.0371 358.332 89.5239C359.095 89.0107 359.668 88.2736 359.965 87.4213C360.262 86.569 360.269 85.6468 359.983 84.7907C359.698 83.9346 359.136 83.1901 358.38 82.667C357.624 82.1439 356.715 81.8701 355.786 81.8858C354.857 81.9016 353.958 82.2061 353.222 82.7545ZM342.09 91.4915C342.588 91.8125 342.95 92.2953 343.112 92.8527C343.274 93.4101 343.225 94.0052 342.973 94.5303C342.721 95.0553 342.283 95.4758 341.739 95.7154C341.195 95.9551 340.58 95.9982 340.006 95.8369C340.152 96.7505 340.598 97.5942 341.278 98.2435C341.958 98.8928 342.835 99.3132 343.78 99.4426C344.725 99.5721 345.689 99.4037 346.528 98.9623C347.367 98.521 348.037 97.83 348.439 96.9916C348.841 96.1531 348.955 95.2116 348.762 94.306C348.57 93.4004 348.082 92.5788 347.37 91.9624C346.658 91.3461 345.761 90.9677 344.81 90.8831C343.859 90.7986 342.906 91.0123 342.09 91.4929L342.09 91.4915ZM352.419 98.1914C350.644 95.9595 351.584 93.8132 353.785 92.1719C355.744 90.7107 358.906 92.4575 358.906 92.4575C357.611 94.6871 355.845 96.6269 353.723 98.1502C355.791 98.3348 357.868 97.9052 359.678 96.9186C359.678 96.9186 359.392 97.9144 357.07 99.6459C355.184 101.054 353.331 99.3395 352.419 98.1914ZM73.488 138.832C69.7972 140.27 65.6016 138.538 64.1167 134.964C62.6319 131.389 64.4203 127.326 68.1111 125.888C71.8019 124.45 75.9975 126.182 77.4824 129.756C78.9672 133.331 77.1789 137.394 73.488 138.832ZM80.8489 144.468C80.4508 144.878 79.9146 145.136 79.337 145.197C78.7593 145.258 78.1782 145.117 77.6984 144.8C77.2187 144.482 76.8719 144.009 76.7205 143.466C76.5692 142.922 76.6233 142.345 76.8732 141.837C75.9443 141.828 75.0371 142.108 74.2854 142.637C73.5338 143.165 72.9776 143.914 72.6989 144.772C72.4202 145.63 72.4338 146.552 72.7377 147.402C73.0416 148.253 73.6197 148.986 74.3866 149.493C75.1536 150.001 76.0687 150.256 76.9969 150.221C77.9251 150.187 78.8173 149.864 79.5415 149.301C80.2658 148.737 80.7839 147.963 81.0193 147.093C81.2547 146.223 81.195 145.302 80.8489 144.468ZM75.1722 131.727C74.7186 132.104 74.1405 132.311 73.5427 132.312C72.9448 132.312 72.3666 132.105 71.9127 131.728C71.4588 131.351 71.1592 130.829 71.068 130.257C70.9769 129.685 71.1003 129.1 71.4158 128.608C70.4679 128.498 69.5085 128.686 68.6793 129.144C67.8501 129.602 67.195 130.307 66.8108 131.153C66.4266 131.999 66.3336 132.943 66.5456 133.844C66.7576 134.746 67.2633 135.558 67.9881 136.159C68.7129 136.761 69.6183 137.121 70.5706 137.187C71.5229 137.252 72.4717 137.019 73.2768 136.522C74.0819 136.025 74.7007 135.291 75.0417 134.427C75.3828 133.564 75.4281 132.617 75.1709 131.726L75.1722 131.727ZM65.7195 139.546C68.4181 138.494 70.2978 139.951 71.3345 142.447C72.2575 144.669 69.6663 147.144 69.6663 147.144C67.7998 145.334 66.3487 143.163 65.408 140.773C64.6653 142.651 64.5309 144.704 65.0225 146.658C65.0225 146.658 64.1099 146.123 63.0161 143.49C62.1264 141.351 64.3314 140.086 65.7195 139.546ZM85.6056 192.529C85.7403 196.38 82.6262 199.607 78.6502 199.737C74.6742 199.867 71.3419 196.852 71.2072 193.001C71.0726 189.151 74.1867 185.923 78.1627 185.793C82.1387 185.663 85.471 188.679 85.6056 192.529ZM93.5895 187.755C93.8514 188.257 93.9193 188.833 93.7811 189.38C93.6428 189.927 93.3074 190.407 92.8354 190.736C92.3634 191.064 91.7858 191.218 91.2068 191.17C90.6279 191.122 90.0856 190.875 89.6779 190.474C89.3519 191.317 89.3142 192.238 89.5704 193.103C89.8265 193.968 90.363 194.73 91.1006 195.277C91.8382 195.823 92.7378 196.126 93.6666 196.14C94.5954 196.154 95.5042 195.878 96.2588 195.353C97.0133 194.829 97.5737 194.083 97.8572 193.226C98.1406 192.369 98.1321 191.447 97.833 190.596C97.5338 189.744 96.9598 189.008 96.1957 188.496C95.4316 187.985 94.5179 187.725 93.5895 187.755ZM79.2857 188.569C79.4967 189.111 79.5006 189.708 79.2965 190.252C79.0925 190.796 78.694 191.252 78.1733 191.536C77.6525 191.82 77.0438 191.915 76.4573 191.802C75.8709 191.69 75.3454 191.378 74.9759 190.922C74.5451 191.748 74.3996 192.685 74.561 193.596C74.7224 194.507 75.1822 195.344 75.8723 195.983C76.5625 196.622 77.4464 197.029 78.3937 197.144C79.341 197.259 80.3014 197.076 81.1331 196.622C81.9647 196.168 82.6235 195.467 83.0123 194.622C83.401 193.778 83.499 192.835 83.2918 191.932C83.0846 191.03 82.5832 190.216 81.8617 189.61C81.1401 189.005 80.2366 188.64 79.2847 188.57L79.2857 188.569ZM83.6442 199.844C83.5457 197.028 85.6017 195.815 88.3778 195.724C90.8494 195.643 92.3665 198.847 92.3665 198.847C89.9724 199.928 87.3698 200.507 84.7288 200.546C86.298 201.864 88.2444 202.688 90.3089 202.908C90.3089 202.908 89.4771 203.556 86.5483 203.652C84.1685 203.731 83.6948 201.292 83.6442 199.844ZM126.796 150.77C126.423 154.606 122.91 157.423 118.949 157.061C114.988 156.7 112.08 153.298 112.453 149.462C112.826 145.626 116.34 142.81 120.3 143.171C124.261 143.532 127.169 146.935 126.796 150.77ZM135.343 147.02C135.537 147.551 135.528 148.131 135.319 148.656C135.11 149.181 134.714 149.617 134.203 149.884C133.692 150.151 133.099 150.233 132.531 150.114C131.963 149.995 131.457 149.683 131.106 149.235C130.671 150.03 130.513 150.94 130.653 151.829C130.793 152.718 131.225 153.54 131.885 154.174C132.544 154.807 133.397 155.218 134.316 155.347C135.236 155.475 136.173 155.314 136.991 154.886C137.808 154.459 138.462 153.789 138.856 152.974C139.25 152.159 139.363 151.243 139.178 150.362C138.994 149.48 138.521 148.679 137.831 148.078C137.14 147.476 136.268 147.105 135.343 147.02ZM121.049 146.063C121.187 146.626 121.112 147.219 120.838 147.733C120.564 148.248 120.109 148.65 119.555 148.868C119.001 149.086 118.385 149.105 117.818 148.921C117.251 148.737 116.771 148.362 116.465 147.865C115.929 148.63 115.661 149.542 115.701 150.466C115.741 151.39 116.087 152.276 116.688 152.995C117.288 153.714 118.111 154.227 119.036 154.458C119.96 154.689 120.937 154.626 121.822 154.278C122.706 153.93 123.452 153.316 123.949 152.527C124.445 151.737 124.666 150.814 124.58 149.893C124.493 148.972 124.103 148.103 123.467 147.413C122.831 146.724 121.983 146.251 121.048 146.064L121.049 146.063ZM123.888 157.783C124.161 154.979 126.36 154.029 129.125 154.282C131.587 154.506 132.671 157.871 132.671 157.871C130.154 158.648 127.496 158.901 124.872 158.614C126.255 160.115 128.077 161.172 130.095 161.645C130.095 161.645 129.185 162.185 126.268 161.919C123.897 161.703 123.748 159.226 123.888 157.783ZM175.369 100.77C175.742 104.606 179.256 107.423 183.217 107.061C187.177 106.7 190.086 103.298 189.712 99.4618C189.339 95.6261 185.826 92.8095 181.865 93.1709C177.904 93.5323 174.996 96.9347 175.369 100.77ZM166.822 97.0204C166.629 97.5509 166.637 98.131 166.846 98.6561C167.055 99.1812 167.451 99.6166 167.962 99.8839C168.474 100.151 169.067 100.233 169.635 100.114C170.203 99.9948 170.708 99.6832 171.06 99.2352C171.494 100.03 171.653 100.94 171.512 101.829C171.372 102.718 170.94 103.54 170.281 104.174C169.621 104.807 168.769 105.218 167.849 105.347C166.93 105.475 165.992 105.314 165.175 104.886C164.357 104.459 163.703 103.789 163.309 102.974C162.916 102.159 162.803 101.243 162.987 100.362C163.172 99.4802 163.644 98.6794 164.335 98.0777C165.026 97.476 165.898 97.1054 166.822 97.0204ZM181.117 96.0627C180.979 96.626 181.053 97.2186 181.327 97.7332C181.601 98.2478 182.056 98.6505 182.61 98.8683C183.164 99.0861 183.781 99.1047 184.347 98.9207C184.914 98.7367 185.394 98.3623 185.701 97.8652C186.237 98.6303 186.504 99.5421 186.464 100.466C186.424 101.39 186.078 102.276 185.478 102.995C184.877 103.714 184.054 104.227 183.13 104.458C182.205 104.689 181.229 104.626 180.344 104.278C179.459 103.93 178.714 103.316 178.217 102.527C177.72 101.737 177.499 100.814 177.586 99.893C177.672 98.9722 178.063 98.1029 178.699 97.4133C179.335 96.7237 180.183 96.2505 181.118 96.0636L181.117 96.0627ZM178.277 107.783C178.004 104.979 175.806 104.029 173.04 104.282C170.578 104.506 169.495 107.871 169.495 107.871C172.012 108.648 174.669 108.901 177.294 108.614C175.911 110.115 174.089 111.172 172.07 111.645C172.07 111.645 172.98 112.185 175.898 111.919C178.269 111.703 178.418 109.226 178.277 107.783ZM152.787 190.39C151.034 193.848 152.507 198.029 156.078 199.727C159.648 201.426 163.965 199.999 165.719 196.541C167.472 193.083 165.999 188.902 162.429 187.204C158.858 185.506 154.541 186.932 152.787 190.39ZM147.529 182.864C147.077 183.218 146.771 183.717 146.665 184.27C146.56 184.824 146.662 185.396 146.954 185.882C147.245 186.369 147.707 186.739 148.255 186.925C148.803 187.112 149.402 187.102 149.944 186.899C149.884 187.796 149.528 188.652 148.929 189.339C148.329 190.025 147.517 190.507 146.612 190.713C145.708 190.919 144.759 190.837 143.906 190.481C143.054 190.124 142.342 189.512 141.876 188.734C141.41 187.955 141.215 187.053 141.319 186.159C141.423 185.265 141.822 184.427 142.455 183.769C143.089 183.111 143.924 182.668 144.838 182.505C145.751 182.342 146.695 182.468 147.529 182.864ZM160.229 189.289C159.807 189.7 159.55 190.242 159.506 190.82C159.461 191.397 159.632 191.971 159.986 192.437C160.341 192.903 160.856 193.231 161.438 193.362C162.021 193.492 162.632 193.416 163.162 193.148C163.206 194.072 162.941 194.984 162.408 195.751C161.875 196.518 161.101 197.099 160.201 197.407C159.301 197.716 158.322 197.736 157.41 197.464C156.497 197.193 155.699 196.644 155.133 195.9C154.567 195.155 154.263 194.254 154.266 193.33C154.269 192.405 154.579 191.506 155.15 190.765C155.722 190.024 156.524 189.481 157.438 189.216C158.353 188.95 159.331 188.976 160.229 189.291L160.229 189.289ZM151.478 197.84C152.76 195.312 151.399 193.389 148.906 192.203C146.686 191.147 143.945 193.466 143.945 193.466C145.671 195.403 147.799 196.965 150.191 198.05C148.202 198.629 146.078 198.606 144.102 197.987C144.102 197.987 144.586 198.908 147.216 200.159C149.353 201.177 150.818 199.141 151.478 197.84Z" stroke="#33F81E" stroke-linecap="round" stroke-linejoin="round"/>
</svg>
