<svg width="40" height="37" viewBox="0 0 40 37" fill="none" xmlns="http://www.w3.org/2000/svg">
<path d="M0 14.1732C0 6.80937 5.96954 0.839844 13.3333 0.839844H26.6667C34.0305 0.839844 40 6.80938 40 14.1732V22.8269C40 30.1907 34.0305 36.1602 26.6667 36.1602H13.3333C5.96954 36.1602 0 30.1906 0 22.8268V14.1732Z" fill="#F6EEFF"/>
<path d="M26.9958 21.7738L24.7463 20.386C24.4521 20.2049 24.1083 20.1094 23.7518 20.1094C23.1848 20.1094 22.6526 20.3549 22.3284 20.7657L21.8063 21.4265C20.9311 20.9082 19.9545 20.1845 19.0236 19.3626C18.0928 18.5407 17.2734 17.6784 16.6866 16.9056L17.4346 16.4445C17.8159 16.2101 18.0706 15.8589 18.1514 15.4559C18.2321 15.0532 18.1304 14.6463 17.8646 14.3094L16.2933 12.3231C15.9647 11.9081 15.4345 11.6602 14.8749 11.6602C14.6809 11.6602 14.4907 11.6904 14.3096 11.7494C14.104 11.8165 13.9124 11.8988 13.7245 12.003L13.4139 12.1962C13.3363 12.2495 13.264 12.3078 13.1949 12.3689C12.8159 12.7034 12.5471 13.1267 12.3953 13.6274C11.7478 15.7706 13.3519 19.0114 16.3867 21.6912C18.9352 23.9416 21.997 25.3395 24.3769 25.3398C24.7844 25.3398 25.1688 25.2979 25.5191 25.2153C26.086 25.0814 26.5655 24.844 26.9446 24.5093C27.0134 24.4485 27.0792 24.3847 27.1497 24.3042L27.3686 24.0284C27.4756 23.8775 27.5687 23.7083 27.6456 23.5254C27.9103 22.8936 27.6431 22.1732 26.9958 21.7738Z" fill="#33F81E"/>
</svg>
