<svg width="31" height="31" viewBox="0 0 31 31" fill="none" xmlns="http://www.w3.org/2000/svg">
<path d="M30.9109 11.8257C30.8092 11.5007 30.6129 11.2138 30.3474 11.0019C30.0819 10.7901 29.7593 10.663 29.4213 10.6372L20.8899 9.89585C20.7862 9.88616 20.6871 9.84828 20.6032 9.78628C20.5192 9.72429 20.4537 9.6405 20.4135 9.54392L17.0799 1.56043C16.9496 1.24638 16.7298 0.978109 16.4481 0.789403C16.1665 0.600696 15.8355 0.5 15.497 0.5C15.1585 0.5 14.8276 0.600696 14.5459 0.789403C14.2642 0.978109 14.0444 1.24638 13.9142 1.56043L10.5848 9.54392C10.5447 9.6405 10.4791 9.72429 10.3952 9.78628C10.3112 9.84828 10.2121 9.88616 10.1084 9.89585L1.58134 10.6372C1.24264 10.6651 0.91973 10.7932 0.653269 11.0051C0.386808 11.2171 0.188709 11.5036 0.0839172 11.8286C-0.0208747 12.1535 -0.0276745 12.5023 0.0643743 12.8311C0.156423 13.1599 0.343205 13.454 0.6012 13.6763L7.07328 19.352C7.1541 19.4216 7.21408 19.5124 7.24651 19.6143C7.27895 19.7162 7.28257 19.8251 7.25696 19.9289L5.31247 28.3682C5.23234 28.7012 5.25336 29.0507 5.37282 29.3716C5.49228 29.6925 5.70469 29.97 5.98264 30.1683C6.25431 30.3699 6.57993 30.485 6.91738 30.4986C7.25482 30.5123 7.58857 30.4238 7.87547 30.2447L15.2086 25.7734C15.2966 25.7189 15.3979 25.6901 15.5013 25.6901C15.6047 25.6901 15.7061 25.7189 15.7941 25.7734L23.1272 30.2447C23.4171 30.4194 23.7517 30.5044 24.0893 30.4893C24.427 30.4741 24.7527 30.3595 25.0259 30.1595C25.2992 29.9596 25.5079 29.6833 25.626 29.3651C25.7441 29.0468 25.7664 28.7006 25.6902 28.3697L23.75 19.9261C23.7244 19.8222 23.728 19.7133 23.7604 19.6114C23.7929 19.5095 23.8529 19.4187 23.9337 19.3491L30.4058 13.6734C30.6633 13.4509 30.849 13.1563 30.939 12.8271C31.029 12.4979 31.0192 12.1493 30.9109 11.8257ZM29.6509 12.8065L23.1788 18.4823C22.9419 18.6889 22.7656 18.9566 22.669 19.2565C22.5724 19.5565 22.5591 19.8773 22.6307 20.1842L24.5708 28.625C24.5979 28.7369 24.5911 28.8544 24.5512 28.9623C24.5113 29.0703 24.4402 29.1638 24.347 29.2308C24.2575 29.2975 24.15 29.3355 24.0386 29.3399C23.9272 29.3443 23.8172 29.3148 23.7227 29.2553L16.3896 24.7839C16.1221 24.6198 15.8147 24.533 15.5013 24.533C15.1879 24.533 14.8805 24.6198 14.613 24.7839L7.27992 29.2553C7.1855 29.3148 7.0754 29.3443 6.96403 29.3399C6.85266 29.3355 6.7452 29.2975 6.65568 29.2308C6.56247 29.1638 6.49133 29.0703 6.45144 28.9623C6.41154 28.8544 6.40471 28.7369 6.43181 28.625L8.372 20.1814C8.44351 19.8744 8.43025 19.5536 8.33364 19.2537C8.23703 18.9537 8.06074 18.686 7.82381 18.4794L1.35173 12.8065C1.2646 12.7314 1.20189 12.6317 1.17171 12.5204C1.14152 12.4091 1.14524 12.2912 1.1824 12.182C1.21703 12.0746 1.28227 11.9797 1.37002 11.9092C1.45777 11.8387 1.56418 11.7957 1.67605 11.7854L10.2074 11.044C10.5194 11.016 10.8179 10.9031 11.0708 10.7173C11.3236 10.5315 11.5213 10.2799 11.6425 9.98961L14.9747 2.00468C15.0196 1.9023 15.0931 1.81525 15.1864 1.75414C15.2796 1.69304 15.3886 1.6605 15.4999 1.6605C15.6112 1.6605 15.7201 1.69304 15.8134 1.75414C15.9066 1.81525 15.9802 1.9023 16.0251 2.00468L19.3573 9.98961C19.4785 10.2799 19.6761 10.5315 19.929 10.7173C20.1819 10.9031 20.4804 11.016 20.7924 11.044L29.3237 11.7854C29.4356 11.7957 29.542 11.8387 29.6298 11.9092C29.7175 11.9797 29.7827 12.0746 29.8174 12.182C29.8549 12.2909 29.859 12.4086 29.8294 12.5199C29.7997 12.6312 29.7376 12.7311 29.6509 12.8065Z" fill="#1E1E1E"/>
</svg>
